<?xml version="1.0" encoding="UTF-8" standalone="no"?>
<svg width="768px" height="803px" viewBox="0 0 768 803" version="1.1" xmlns="http://www.w3.org/2000/svg" xmlns:xlink="http://www.w3.org/1999/xlink">
    <!-- Generator: Sketch 39.1 (31720) - http://www.bohemiancoding.com/sketch -->
    <title>bg-white</title>
    <desc>Created with Sketch.</desc>
    <defs></defs>
    <g id="Page-1" stroke="none" stroke-width="1" fill="none" fill-rule="evenodd">
        <g id="Tablet-Portrait" stroke="#F8F8F8">
            <path d="M629.152344,102.1875 C549.497935,69.5015433 453.235255,50.6022417 367,58.4726563 C309.140944,63.7532664 254.959411,100.724634 208.640625,131.402344 C182.608834,148.643636 162.736334,171.939426 144.046875,196.691406 C137.032262,205.981432 122.390783,229.20121 126.335937,242.53125 C136.653864,277.393859 167.084476,289.007972 198.570313,300.527344 C230.23209,312.111086 262.018505,323.500808 294.417969,332.824219 C363.803493,352.790899 493.890987,353.622553 563.90625,349.144531 C585.38768,347.770626 606.560059,342.846538 627.457031,337.683594 C668.138966,327.632446 734.39513,281.431287 712.539062,230.027344 C697.867749,195.52144 660.470321,166.763689 625.375,155.015625 C513.762923,117.653782 416.405243,84.9268471 302.40625,74.796875 C249.112066,70.0611437 219.337291,94.613042 184.679688,133.140625 C174.255714,144.728573 158.198455,164.744355 158.980469,183.492188 C159.449249,194.73062 156.911314,208.257512 164.191406,216.832031 C180.673223,236.244376 230.1205,245.924976 252.746094,247.046875 C353.135926,252.024744 434.836505,254.304518 528.484375,226.210938 C541.64309,222.263433 556.088889,219.931582 567.03125,211.625 C577.570573,203.624373 675.75559,141.058989 657.671875,90.421875 C641.348241,44.7132515 585.539828,24.1078808 540.984375,21.6640625 C488.150585,18.7661864 364.313021,4.80904323 295.113281,37.2890625 C255.102628,56.068711 216.447838,77.8657302 179.121094,101.535156 C160.57012,113.298596 144.835424,129.013081 128.074219,143.210938 C91.4739554,174.213798 59.5650992,195.197234 57.5742188,246.003906 C57.287365,253.324328 56.3095279,261.367896 59.6601563,267.882813 C63.0368105,274.448334 69.810852,278.999887 76.328125,282.46875 C105.904804,298.211141 135.91084,313.509125 167.316406,325.183594 C253.587774,357.253464 375.04349,358.329501 462.152344,361.648438 C503.525174,363.224785 550.513117,364.97956 590.300781,349.144531 C664.899829,319.454977 718.845239,279.567139 726.085938,195.300781 C727.428265,179.678944 728.026957,163.000517 722.265625,148.417969 C676.757416,33.2318139 518.858825,-39.3610675 401.03125,-35.984375 C369.740963,-35.0876606 340.378783,-19.7744517 311.433594,-7.85546875 C249.331536,17.7167724 212.602081,94.766954 183.289063,148.417969 C173.162675,166.952088 159.971152,202.528096 166.621094,224.472656 C168.353847,230.190676 171.518264,236.774087 177.039062,239.058594 C236.211198,263.544032 296.70308,285.013782 357.96875,303.652344 C379.162464,310.100006 401.648519,311.131224 423.605469,314.070313 C507.816196,325.342497 523.624993,327.997377 622.59375,292.539063 C633.061442,288.78872 639.15696,276.756107 643.433594,266.492188 C659.704632,227.441697 669.591566,172.194891 647.253906,132.445313 C604.698718,56.7188997 519.185457,21.8889443 436.800781,11.5898438 C408.87,8.09815165 380.196508,3.9419961 352.414063,8.46484375 C304.672407,16.2369542 257.959279,30.7028275 212.808594,48.0546875 C190.108682,56.7784906 158.252577,94.125502 144.046875,111.953125 C122.544986,138.937189 101.09909,172.971129 96.125,207.804688 C95.290449,213.649049 95.5952906,219.635791 96.125,225.515625 C96.7567696,232.528339 95.4386334,240.670029 99.5976562,246.351563 C128.309295,285.573789 171.47077,297.664206 219.40625,302.609375 C306.022565,311.544975 433.242268,292.301296 514.59375,253.296875 C568.100612,227.642712 631.933605,168.126202 586.824219,100.84375 C534.333483,22.5517194 434.276276,3.75588609 345.121094,14.71875 C276.30468,23.1806808 164.859425,80.9249727 102.375,129.320313 C64.6353785,158.550346 7.90638937,231.475613 20.0703125,284.550781 C27.6625382,317.678141 57.662871,347.722258 85.703125,364.773438 C102.564647,375.02687 119.349552,385.892347 137.796875,392.902344 C243.585491,433.102097 382.566582,384.698158 476.390625,359.214844 C497.528688,353.473587 516.539582,341.559153 535.777344,331.085938 C583.855382,304.911808 665.207507,243.225578 643.78125,176.203125 C616.975119,92.3521458 526.151888,47.8845972 447.914063,28.2617188 C411.781689,19.1993354 372.554846,6.05098627 336.785156,16.453125 C252.461017,40.9753226 47.6146049,70.3951881 35.0039063,203.984375 C22.6897252,334.432455 248.51191,348.523229 311.089844,357.132813 C351.011105,362.625251 391.646603,359.807462 431.941406,360.257813 C538.07492,361.444003 696.14169,358.760752 758.726563,254.339844 C767.907996,239.020909 769.439559,220.167774 772.621094,202.59375 C789.778576,107.820006 658.218821,28.1531963 581.617188,18.8828125 C311.775235,-13.7736509 330.606259,6.80557833 96.125,182.453125 C80.7773301,193.94991 72.5188357,212.813755 62.7851563,229.335938 C41.2957285,265.812611 27.9452,298.123423 36.7382812,342.546875 C39.4690637,356.343038 50.0641948,367.687271 59.6601563,377.96875 C99.5827825,420.743374 166.46204,436.209461 221.144531,444.648438 C252.528694,449.491856 284.213764,455.15715 315.949219,454.023438 C403.634739,450.890973 648.381015,440.581009 615.304688,282.816406 C607.414409,245.182042 603.441751,201.1073 575.714844,174.464844 C510.680902,111.974502 436.006152,50.4122577 348.941406,26.8710938 C190.04099,-16.0934923 77.1740454,50.9644009 -41.7460938,131.054688 C-63.4345017,145.661388 -83.072926,163.638542 -100.089844,183.492188 C-109.186294,194.10502 -114.201129,207.814404 -118.839844,221 C-120.917632,226.906136 -120.879361,233.572763 -119.882812,239.753906 C-117.045657,257.351506 -98.1663503,266.78672 -82.3789062,269.964844 C-22.644308,281.989841 37.9899103,289.323629 98.5546875,296.011719 C188.99546,305.998976 279.513892,317.568093 370.472656,319.972656 C470.661868,322.621234 608.141858,327.696029 689.96875,250.171875 C701.62281,239.130625 710.686301,225.610178 720.179687,212.664063 C734.349708,193.340429 766.302052,141.865438 756.644531,114.734375 C735.777372,56.111851 609.33188,43.1317923 588.910156,41.4570313 C441.21277,29.3445463 271.027779,32.6074671 137.796875,112.300781 C120.670599,122.545024 10.9918364,195.894804 1.31640625,253.296875 C-1.57878336,270.47336 -6.51559398,292.760773 5.484375,305.386719 C37.0087404,338.555548 78.1647106,363.610257 121.128906,379.359375 C187.83028,403.809683 258.926744,415.945954 329.492188,424.15625 C433.316622,436.236232 479.707445,419.7781 556.613281,349.144531 C573.042482,334.05526 566.857559,282.695836 563.210938,267.535156 C554.163284,229.919911 513.724407,164.449897 486.117188,140.433594 C458.642035,116.532179 432.929907,78.5898368 396.519531,77.921875 C218.286557,74.6521254 71.9399345,71.4003618 -52.859375,176.546875 C-76.8972361,196.799369 -98.4332465,219.930819 -119.535156,243.226563 C-125.293363,249.583414 -131.537345,256.667904 -133.078125,265.105469 C-134.222399,271.371701 -132.41417,280.102832 -126.828125,283.164063 C-96.3133497,299.886586 -1.58622818,308.463512 21.1132812,310.25 C232.406329,326.879104 387.972563,310.12566 623.289062,272.050781 C628.641646,271.184718 667.637542,222.371231 664.964844,207.457031 C632.163037,24.4163068 392.574839,76.4888396 227.742188,105.355469 C183.357209,113.128472 32.3797572,186.368788 16.9453125,275.523438 C15.5815927,283.400751 11.8293229,294.382696 17.984375,299.484375 C48.6921005,324.936794 82.2773341,349.68657 120.433594,361.300781 C213.214583,389.541967 309.779525,404.605521 405.894531,417.558594 C439.307311,422.061514 475.595556,425.775818 506.953125,413.390625 C573.876713,386.958042 570.979169,283.19325 566.335938,229.335938 C563.545093,196.964654 561.060462,163.501838 548.625,133.484375 C540.234598,113.231119 527.826014,84.0136003 505.910156,83.4765625 C419.783844,81.3660778 332.923037,99.5063569 251.007813,126.191406 C211.177031,139.16685 93.0719562,254.24329 65.5625,281.425781 C60.488186,286.439784 47.6757253,293.228828 52.5625,298.425781 C58.5528002,304.796304 69.8809872,295.832293 78.609375,295.300781 C263.793803,284.024047 449.47154,279.614573 634.253906,263.003906 C647.897414,261.777449 659.661849,251.515196 669.675781,242.167969 C675.920103,236.33938 679.294079,227.587739 681.132813,219.246094 C684.129569,205.650933 685.148875,191.440876 683.914063,177.574219 C681.539037,150.903244 678.72445,123.834718 670.371094,98.3945313 C663.246271,76.695849 651.331697,56.5653942 638.074219,37.96875 C626.096188,21.1668236 611.580666,5.91633818 595.355469,-6.83203125 C577.232148,-21.0717833 558.474507,-37.2647191 535.972656,-42.2539062 C409.227188,-70.3563433 302.345116,27.2598969 217.867188,104.296875 C188.148261,131.398111 145.230785,166.639272 134.519531,210.914063 C133.213078,216.314266 131.599832,222.855048 134.519531,227.582031 C139.567283,235.754324 147.422167,242.916473 156.398438,246.335938 C206.38463,265.377925 257.784349,280.772354 309.546875,294.257813 C389.848867,315.17853 471.181387,331.955215 552.292969,349.476563 C566.899045,352.631699 667.619719,374.166198 695.375,368.578125 C729.612914,361.68488 765.530487,353.926566 794.347656,334.195313 C807.493778,325.1941 806.961078,304.806325 811.015625,289.398438 C813.953601,278.233689 815.576998,266.553759 815.183594,255.015625 C814.181141,225.61473 814.938848,195.43964 806.847656,167.15625 C771.045337,42.0064587 587.473959,41.2345684 495.339844,44.21875 C373.476523,48.1658469 261.52696,126.517795 179.320312,209.523438 C138.889433,250.347278 91.562801,304.385298 86.5976563,364.757813 C83.1925318,406.161626 195.495842,455.991564 209.183594,460.605469 C336.918326,503.662644 494.406523,541.898985 629.390625,496.722656 C651.950671,489.172285 670.804494,472.723863 688.773438,457.132813 C700.480265,446.97519 703.414049,421.403065 704.402344,408.164063 C707.916003,361.095778 703.013788,313.437958 674.1875,273.769531 C658.001535,251.495704 639.827184,230.214775 618.625,212.648438 C574.466106,176.062111 496.457665,139.266326 442.554688,126.175781 C406.252703,117.359705 246.617973,98.9335053 208.144531,118.882813 C125.828866,161.565256 56.1462709,225.707528 -13.765625,286.617188 C-25.9466936,297.229755 -29.4966036,315.048405 -34.6054688,330.375 C-36.9143073,337.301516 -38.7209533,345.632503 -35.6445312,352.253906 C-31.2981629,361.608623 -23.8972009,371.212968 -14.1132812,374.480469 C39.0943879,392.250045 94.1688551,404.559088 149.453125,414.070313 C191.348197,421.27803 234.122583,421.971687 276.558594,424.488281 C347.612045,428.701984 463.168616,438.678786 537.363281,423.097656 C556.568688,419.064456 601.086623,406.811933 615.5,386.632813 C648.456681,340.492561 653.725668,291.868871 649.878906,235.570313 C648.104476,209.600981 643.439337,182.978596 632.167969,159.515625 C615.402563,124.616026 535.602935,102.532014 512.359375,104.296875 C336.407557,117.656725 195.454697,151.229097 74.09375,276.546875 C52.8253454,298.508711 10.7587952,353.300237 16.7929687,390.109375 C18.491288,400.469314 24.8900522,411.934948 34.5039062,416.152344 C93.6053176,442.07889 156.146228,459.456774 217.867188,478.316406 C296.01163,502.194444 415.955486,529.510354 496.035156,535.617188 C528.285067,538.076549 562.956931,542.570675 592.925781,530.40625 C627.346295,516.434885 633.83636,443.390771 635.640625,418.585938 C643.901316,305.018855 636.227735,191.650196 540.835938,110.203125 C513.663567,87.0029125 476.43003,68.7307701 440.820312,71.6523438 C336.297051,80.2278796 230.294541,100.809687 134.519531,143.539063 C59.8067161,176.871682 4.16988071,242.514353 -58.9140625,294.605469 C-67.1107095,301.373792 -72.3764304,311.07013 -78.7070312,319.609375 C-87.3142244,331.219479 -111.987942,343.183487 -103.710938,355.03125 C-86.8983485,379.09691 -54.2863566,389.54587 -25.5742188,395.664063 C56.8458193,413.226728 141.711498,416.256808 225.507813,425.183594 C340.039388,437.384594 383.162171,450.207171 489.089844,421.015625 C495.474151,419.256238 499.277169,411.459835 500.898437,405.039063 C555.290328,189.628822 472.563448,462.223961 511.316406,198.410156 C512.73043,188.784077 526.81887,186.550003 535.277344,181.742188 C636.016896,124.481603 743.012936,77.4820223 838.796875,12.2695313 C848.848327,5.42621058 847.485618,-16.8992509 837.757812,-24.1953125 C762.653919,-80.5248325 642.220909,-57.509496 562.019531,-33.5703125 C552.81368,-30.8224723 380.06529,18.2501701 330.730469,54.984375 C314.950411,66.7340448 296.144123,89.2004449 284.542969,105.6875 C283.718992,106.8585 282.363227,108.990004 283.503906,109.855469 C286.594772,112.200594 290.740589,113.092932 294.613281,113.328125 C344.227009,116.341217 393.964977,116.895239 443.597656,119.578125 C561.256303,125.938144 575.040469,126.861345 693.636719,148.75 C703.573122,150.583907 845.948263,185.22642 907.558594,188.6875 C917.267245,189.232902 928.201804,193.358394 936.730469,188.6875 C944.932502,184.195492 952.973135,173.926282 951.316406,164.722656 C933.709171,66.9091627 860.711056,15.7139809 755.453125,-0.92578125 C642.314533,-18.8113625 544.862339,8.52000213 449.847656,56.0273438 C404.679938,78.611203 356.988878,97.7450135 316.492188,127.914063 C281.169031,154.228954 250.476654,187.368621 225.160156,223.414063 C217.963156,233.661099 212.689081,253.925628 223.074219,260.921875 C252.152477,280.511282 289.290904,286.174308 324.132813,290.089844 C425.649615,301.498307 577.66634,290.096707 675.230469,263.351563 C707.584534,254.482379 743.326652,243.263118 764.828125,217.511719 C792.347202,184.553292 802.227433,99.3805134 783.582031,56.7226563 C728.073754,-70.2718819 671.07511,-77.1462297 513.746094,-98.5117187 C471.358632,-104.267992 425.217435,-99.2930139 386.644531,-80.8007812 C315.0812,-46.4926107 142.11688,38.8874961 144.242188,157.777344 C144.975369,198.791584 252.007077,226.27345 284.542969,226.191406 C310.910949,226.124915 652.67061,274.899788 725.933594,149.792969 C738.995917,127.48722 727.235976,96.6801724 717.597656,72.6953125 C711.369113,57.1956478 697.812476,39.29286 681.136719,38.3164063 C539.322371,30.0124264 393.737137,14.9522628 255.027344,45.609375 C201.540187,57.4309036 172.393873,117.960027 135.910156,158.820313 C125.528039,170.447864 112.280594,186.077939 116.113281,201.1875 C130.177255,256.631746 224.314413,284.679889 261.972656,292.871094 C329.564366,307.573255 469.021462,320.091734 540.140625,281.757813 C570.59506,265.342576 611.580576,253.414952 624.527344,221.332031 C677.095522,91.0647164 604.838146,-14.5148771 481.449219,-40.515625 C445.156944,-48.1632017 401.775591,-65.7256845 370.320313,-46.0742187 C228.411262,42.5824707 97.9759369,151.344434 -18.28125,271.6875 C-31.8788691,285.76301 4.90947934,310.618129 24.4335938,311.96875 C253.747939,327.83204 359.810736,315.150243 552.988281,239.734375 C565.870975,234.705014 579.476379,226.241959 585.285156,213.691406 C599.755232,182.42709 624.735059,145.412186 611.332031,113.675781 C592.133902,68.2174241 542.8835,41.1823602 501.246094,14.6992188 C362.27681,-73.6910896 79.4773339,83.1751996 19.9179688,111.589844 C-15.7575973,128.60998 -40.2595253,170.308273 -47.453125,209.175781 C-51.2166939,229.5106 -27.2231155,252.682959 -6.8203125,256.058594 C88.9199062,271.898772 187.17615,261.953341 284.195313,264.046875 C353.166824,265.535181 444.513072,263.211602 508.191406,253.628906 C553.637625,246.789888 653.997621,213.113731 637.726563,139.375 C615.927306,40.5830532 525.723974,-57.5713573 418.246094,-26.625 C261.671805,18.4578007 57.6412033,111.642905 2.5546875,290.089844 C-10.140779,331.215464 30.1667624,382.075975 68.8867188,400.871094 C123.959752,427.604187 191.334223,417.411896 252.246094,411.292969 C416.887704,394.753828 576.488732,411.878798 588.410156,212.648438 C591.221923,165.65831 503.354381,95.3080828 459.222656,100.476563 C303.406627,118.724931 149.174268,153.223535 -1.265625,197.714844 C-16.9214156,202.34491 -37.194084,240.028208 -21.0585938,242.515625 C156.534218,269.893005 337.431746,268.08993 516.871094,277.589844 C532.193911,278.401067 548.479365,279.148827 562.714844,273.421875 C579.793099,266.55127 594.49496,254.141759 607.511719,241.125 C612.483578,236.15314 615.790567,228.293843 614.804687,221.332031 C609.978296,187.250349 622.887294,132.616294 590.496094,120.96875 C326.979419,26.2108489 203.890229,61.650949 36.9335938,260.921875 C21.2442653,279.647857 27.6902719,315.865206 44.2265625,333.847656 C61.8458987,353.007869 94.4936868,348.015101 120.28125,351.558594 C165.168246,357.726557 405.687981,392.720696 467.203125,355.03125 C496.904483,336.833654 513.048322,290.647533 503.667969,257.101563 C454.017967,79.5434904 281.166634,109.654772 140.070313,148.75 C89.5800535,162.739934 -10.5509185,197.650246 14.703125,243.554688 C44.3994214,297.533842 137.526668,254.14277 199.105469,256.058594 C293.869449,259.006866 388.731356,259.76081 483.527344,258.140625 C489.010111,258.046918 588.488271,269.256976 582.5,219.59375 C571.261354,126.386967 500.775682,120.817631 413.375,104.992188 C255.899137,76.4783894 92.0583025,188.034537 -29.75,252.585938 C-52.5415418,264.664145 -73.474136,284.826792 -82.8828125,308.84375 C-88.5734393,323.369868 -84.7186824,351.02105 -69.3398438,353.644531 C87.8581626,380.460992 269.143013,360.839637 425.878906,324.820313 C486.237014,310.949474 519.627616,258.069459 508.53125,197.367188 C507.299615,190.629573 503.339187,184.083697 498.113281,179.65625 C477.968779,162.589599 459.81835,136.149571 433.519531,133.816406 C330.121882,124.643228 224.931239,130.375597 122.359375,146.320313 C106.118393,148.84496 -18.2029414,236.427441 -2.6640625,267.171875 C13.1496426,298.460066 65.144163,287.20331 100.132813,289.398438 C216.954222,296.727612 334.301129,300.985858 451.230469,295.648438 C502.4616,293.309913 553.405271,281.971415 602.292969,266.476563 C614.001913,262.765438 620.004373,249.352057 627.644531,239.734375 C629.971016,236.805719 629.292462,232.080275 631.8125,229.316406 C650.99151,208.2817 701.892376,195.698048 692.199219,168.933594 C675.21397,122.034434 624.097216,87.5144293 575.859375,74.8203125 C547.865192,67.4534524 525.630373,103.619454 500.847656,118.578125 C454.666469,146.45276 409.496692,176.000629 362.980469,203.3125 C357.655994,206.43875 342.604071,204.125222 348.046875,216.859375 C352.821947,228.031283 356.035024,242.482 366.800781,248.113281 C425.600962,278.87009 486.606449,307.935794 551.203125,323.125 C616.645204,338.512994 685.109853,335.928264 752.277344,338.753906 C792.531594,340.447346 834.155956,346.884696 873.128906,336.667969 C908.046149,327.514442 947.458691,312.910093 966.894531,282.492188 C988.085464,249.327488 998.801606,201.293522 982.523437,165.460938 C933.827002,58.2671135 845.947594,16.5009511 739.773438,23.7734375 C608.806621,32.7441175 478.630046,47.2961714 364.714844,114.757813 C342.554591,127.88132 325.028867,147.69664 306.71875,165.808594 C303.406838,169.084662 296.537186,175.809756 300.46875,178.308594 C446.489269,271.11686 464.112924,287.900782 628.992188,274.160156 C712.853354,267.171376 897.55898,264.959346 782.144531,93.921875 C685.717668,-48.9771034 534.701799,-23.1408424 400.832031,19.953125 C339.808733,39.5971122 249.797267,118.235189 260.53125,193.9375 C262.559074,208.238895 272.486455,220.353827 280.328125,232.484375 C282.285524,235.512343 292.690154,239.786973 289.328125,238.484375 C283.099559,236.071155 278.148649,230.508901 271.617188,229.109375 C87.0700271,189.565614 86.1715625,185.589043 -123.933594,251.335938 C-148.206148,258.931396 -167.9461,277.632136 -186.441406,295.089844 C-205.491845,313.071541 -226.889517,331.786445 -235.410156,356.558594 C-240.716092,371.984598 -235.722979,392.845433 -223.949219,404.136719 C-212.200704,415.403794 -192.246373,412.173462 -176.023437,413.511719 C-73.5268822,421.966829 29.0650016,436.578013 131.863281,433.488281 C139.855191,433.248074 284.62365,431.356954 302.03125,371.671875 C312.784005,334.804125 325.789866,296.274101 321.476563,258.113281 C315.503506,205.268227 282.943715,120.308698 233.964844,82.0429688 C205.333727,59.6743324 177.480297,27.3682345 141.242188,24.7421875 C51.9643293,18.2725384 -44.6458398,17.5246823 -125.46875,55.9960938 C-198.435895,90.7281894 -240.845352,169.520706 -292.855469,231.371094 C-301.55001,241.710635 -310.703872,257.514719 -305.359375,269.921875 C-265.857715,361.624283 -74.123567,359.96435 -31.0078125,366.464844 C30.1346279,375.683192 91.9198848,384.30706 153.742188,383.132813 C184.480074,382.54898 216.063789,375.437536 243.339844,361.253906 C282.551049,340.863962 231.350373,255.819688 228.058594,253.25 C79.5816919,137.34329 -41.0140597,202.09135 -200.132812,300.132813 C-236.982671,322.837955 -259.294142,367.406985 -270.628906,409.179688 C-277.337023,433.901524 -271.398671,469.387563 -249.792969,483.148438 C-205.177732,511.564301 -148.204165,515.093262 -95.6015625,520.65625 C15.0456218,532.357743 51.6035429,521.371051 138.460938,467.519531 C153.24347,458.354372 161.404689,404.011003 162.425781,401.886719 C165.407938,395.682628 174.533382,394.768827 178.925781,389.46875 C201.706643,361.980283 226.593412,335.469055 243.519531,304.035156 C266.262405,261.798825 280.270406,167.509819 261.925781,124.496094 C246.866847,89.1865225 217.677854,59.5145355 185.871094,38.0234375 C135.644772,4.08666474 42.4511268,17.6685942 26.4726562,83.8632813 C19.3968116,113.176683 5.13718831,144.627856 13.96875,173.460938 C19.2937453,190.845861 43.8293685,197.448437 61.8945312,199.507813 C117.944761,205.897375 207.908062,201.092306 271.300781,187.003906 C277.622635,185.598937 374.331759,178.060507 351.871094,129.703125 C335.781458,95.0624465 314.181956,54.1347193 277.902344,42.1914063 C197.049021,15.5743481 125.762623,22.1537345 66.4101562,67.5429688 C33.5611931,92.6639005 27.6454093,123.168884 24.734375,169.640625 C23.5301562,188.864769 24.4253272,212.167283 37.9335937,225.898438 C55.8435245,244.103884 83.4630895,251.695043 108.777344,255.070313 C144.242049,259.798989 277.637535,263.232197 302.558594,204.714844 C346.196484,102.248336 344.060008,-16.6701103 223.378906,-60.953125 C155.163522,-85.9842426 74.8425864,-44.1243316 22.6523438,-6.4296875 C14.5999426,-0.613803508 8.29580494,8.18562787 4.94140625,17.5351563 C-2.78821653,39.0795027 -6.75495818,61.8996821 -9.9921875,84.5585938 C-11.7602681,96.9342329 -15.2531882,110.722111 -9.9921875,122.0625 C1.08645551,145.943151 15.0318532,170.946948 36.890625,185.617188 C116.831599,239.268565 258.550095,240.249575 340.757813,240.484375 C345.067511,240.496684 414.013339,222.999567 419.9375,209.230469 C437.469484,168.482151 449.425981,124.33451 451.886719,80.0429688 C453.252153,55.4661198 449.664089,25.3060706 431.050781,9.19921875 C368.449703,-44.9720389 302.143453,-115.241415 219.558594,-121 C164.481686,-124.840474 132.015562,-53.2507887 92.8007812,-14.3867187 C57.2811337,20.8152648 26.1659013,140.388905 31.3320312,165.847656 C49.9610928,257.6519 168.366416,264.808809 232.058594,269.335938 C263.650351,271.581425 295.723352,268.84292 326.867188,263.085938 C337.879918,261.050218 350.693272,256.259052 356.039063,246.417969 C380.973214,200.516608 385.565753,110.337637 315.40625,87.015625 C254.163536,66.6576799 182.856111,73.9431347 121.972656,95.3515625 C95.4340742,104.683315 90.6767676,142.78355 81.3398438,169.320313 C77.0732366,181.44657 70.3962002,203.226615 82.3828125,207.871094 C218.617381,260.658199 361.572562,294.326972 502.589844,332.542969 C557.347919,347.382529 613.42445,356.988236 669.28125,366.921875 C692.905136,371.123175 716.872504,373.413042 740.820312,374.910156 C743.146174,375.055559 746.710215,374.086954 747.074219,371.785156 C748.970561,359.793548 748.244963,347.447326 747.074219,335.363281 C746.147966,325.8028 744.492912,316.109777 740.820312,307.234375 C717.814674,251.637715 701.985393,257.527453 631.777344,312.09375 C593.198853,342.077284 569.178418,407.022854 561.277344,453.4375 C558.770817,468.162021 554.856163,485.296807 562.320313,498.234375 C572.07748,515.146419 589.788687,528.087964 608.160156,534.699219 C628.003703,541.840223 650.345331,539.162336 671.367187,537.476563 C721.303392,533.472105 773.232502,534.707767 820.347656,517.683594 C875.822832,497.638684 938.00038,475.803495 973.148437,428.433594 C990.5731,404.949948 969.739717,364.844575 949.1875,344.042969 C839.569867,233.095187 757.895152,224.809607 624.832031,312.789062 C594.325111,332.959807 584.812258,374.333228 569.613281,407.597656 C566.005571,415.493478 566.326373,425.605962 569.613281,433.640625 C577.093322,451.925169 585.236891,471.914315 600.867188,483.996094 C611.671061,492.347183 627.865179,489.952695 641.5,489.207031 C672.640784,487.503998 703.849495,483.782661 734.222656,476.703125 C762.267178,470.166361 819.37962,444.840599 807.152344,400.304688 C796.463793,361.37334 768.914322,326.496369 737.347656,301.328125 C714.484358,283.099115 680.753767,268.279511 652.960938,277.367188 C541.457485,313.826494 436.299571,369.888212 336.9375,432.253906 C322.515777,441.305859 324.378591,465.3697 326.519531,482.261719 C333.815107,539.823811 457.268928,483.902056 465.082031,481.21875 C478.784026,476.512984 496.69494,476.031692 505.082031,464.21875 C509.49564,458.002327 492.445329,455.386824 485.289063,452.757813 C446.449857,438.489379 347.771746,407.103746 307.136719,411.085938 C176.183671,423.919203 40.6336803,427.936026 -82.5117187,474.289063 C-132.115335,492.96031 -153.998654,552.915615 -184.609375,596.183594 C-190.745369,604.856766 -193.925634,617.265361 -190.859375,627.4375 C-186.049933,643.39255 -178.525687,663.454746 -162.730469,668.765625 C-43.044904,709.007902 190.939918,735.667673 306.441406,675.363281 C341.167885,657.232267 343.305926,598.413286 332.488281,560.761719 C262.260905,316.330447 159.458507,359.565932 -21.390625,529.160156 C-64.6100614,569.689888 -78.3424805,634.517651 -92.5820312,692.03125 C-97.0690301,710.154255 -93.1158115,741.204796 -74.8710937,745.167969 C-27.670811,755.420957 23.7126805,744.16472 68.9023438,727.109375 C110.374152,711.457211 173.539559,694.18303 177.253906,650.011719 C181.412324,600.559482 134.705023,536.814285 85.2265625,532.980469 C83.0195844,532.809462 -104.004127,589.704487 -134.601562,660.082031 C-141.055528,674.926877 -159.985187,703.566601 -144.324219,707.660156 C-83.5927427,723.534504 140.16357,739.282758 200.171875,652.789062 C226.772216,614.44834 241.248561,548.366995 210.59375,513.183594 C70.5172218,352.413769 -42.1578525,614.90959 -33.1953125,687.519531 C-27.8381866,730.920241 44.4750412,731.659626 87.65625,738.566406 C147.216184,748.092943 209.190277,746.291258 268.585938,735.789062 C288.292856,732.304533 316.764278,718.255789 315.46875,698.285156 C302.944231,505.219067 81.3452511,536.223237 -57.8515625,546.175781 C-83.4941961,548.009224 -126.86028,591.89048 -105.777344,606.601562 C-61.238792,637.679316 247.12158,611.82176 263.726563,609.035156 C295.431161,603.714575 343.790184,601.838352 352.28125,570.832031 C364.260719,527.087319 353.131222,454.262548 309.566406,441.644531 C236.451217,420.46761 151.680675,453.459246 87.3085938,494.085938 C1.05761776,548.5209 -74.7865082,688.241553 77.9335937,722.941406 C140.141353,737.075761 205.882472,718.01094 268.585938,706.269531 C292.301795,701.828667 314.608694,689.540521 333.875,675.015625 C338.874392,671.246577 337.141938,662.114377 334.917969,656.261719 C317.13256,609.457149 316.004556,546.737041 274.492188,518.742188 C163.502769,443.893832 104.524562,489.189816 60.9140625,568.054688 C56.8807824,575.348438 53.3170383,589.630567 60.9140625,593.058594 C107.454283,614.059072 223.54779,641.366956 280.394531,615.980469 C298.013611,608.112181 312.770862,586.998467 312.34375,567.707031 C311.824108,544.236278 301.310069,503.75902 277.964844,506.238281 C187.553548,515.839953 96.9975174,548.2154 21.3242188,598.613281 C-23.1025192,628.201174 -92.9988738,689.173181 -64.1054687,734.054688 C-28.2482237,789.753459 141.886259,835.030789 131.414062,769.621094 C52.4877076,276.644395 -138.623191,736.882396 -99.5273438,760.59375 C-74.0000504,776.075873 205.459095,815.622487 255.042969,723.78125 C349.466101,548.886944 261.457556,542.73431 158.5,539.03125 C144.103258,538.513444 185.810381,551.62045 200.171875,550.488281 C291.068375,543.322577 394.899815,564.116672 471.3125,514.371094 C507.952464,490.518036 491.925903,408.603344 455.6875,384.144531 C413.399014,355.602265 348.720811,377.388009 303.578125,401.160156 C251.089289,428.800787 165.668327,540.92212 203.5625,615.429688 C216.592533,641.049353 251.096357,652.497223 279.617188,656.0625 C398.597957,670.935817 463.190571,664.432029 528.613281,567.507812 C537.358561,554.551618 532.926304,535.910602 529.65625,520.625 C522.495941,487.154719 512.791942,453.763242 497.707031,423.039062 C490.232405,407.815124 480.202452,383.829648 463.328125,385.53125 C389.522965,392.973738 304.535419,398.031468 249.75,448.042969 C208.350577,485.834909 167.896468,660.971313 280.3125,674.121094 C398.012651,687.88898 599.805987,703.063121 626.894531,532.777344 C633.130118,493.578791 617.194104,431.866041 578.273437,424.082031 C457.360902,399.899907 291.383808,528.90766 252.183594,633.488281 C238.88397,668.969794 251.134572,722.519159 283.089844,742.882812 C350.969998,786.139773 531.103239,786.652425 599.804688,724.476562 C662.299481,667.917817 709.899124,478.946787 611.265625,419.914062 C487.67306,345.943192 325.85022,554.56989 284.824219,611.957031 C266.494364,637.596819 241.229148,673.019669 254.613281,701.554688 C267.344523,728.697737 310.27075,726.155897 340.042969,729.683594 C419.19493,739.062275 533.84918,726.690609 606.75,692.527344 C638.585392,677.608431 667.741364,639.104758 647.730469,603.277344 C607.622258,531.467789 547.766489,502.400522 457.421875,522.707031 C410.695872,533.209506 372.58361,568.422726 335.527344,598.761719 C325.390567,607.060979 246.151022,679.977708 293.507813,714.40625 C321.435131,734.709502 358.154721,741.236545 392.480469,744.964844 C437.051471,749.805934 483.300712,750.287255 526.878906,739.753906 C568.853852,729.608081 609.088913,709.731862 643.910156,684.191406 C661.967166,670.94707 693.005434,607.876202 691.140625,580.703125 C689.724468,560.067581 690.922562,530.104716 672.039063,521.664062 C572.255348,477.062175 374.883937,526.996496 296.980469,561.253906 C270.846454,572.746125 254.350307,602.160831 244.542969,628.972656 C238.716919,644.900222 238.967464,670.973432 253.917969,678.980469 C298.203732,702.69858 350.938905,706.666927 400.816406,712.667969 C485.176794,722.81784 536.451293,726.757549 599.773438,674.078125 C634.881442,644.870815 599.507677,638.657326 619.21875,604.429688 C642.021346,564.833719 674.312962,531.493785 700.484375,494.039062 C707.343662,484.222524 713.837235,473.935684 718.195312,462.78125 C727.561223,438.80934 764.736834,400.142205 741.460937,389.160156 C663.337457,352.299883 572.292199,452.690589 541.082031,501.332031 C530.301006,518.134395 521.018597,540.803026 527.539062,559.671875 C554.325802,637.187037 712.559791,656.418772 752.226562,662.816406 C773.835896,666.301656 803.298301,670.023319 817.167969,653.089844 C830.562716,636.7362 823.564234,607.556592 811.960937,589.886719 C788.493277,554.14941 758.530262,516.54777 718.195312,502.371094 C641.495567,475.413146 556.846313,527.543938 530.664063,598.222656 C507.38341,661.068541 532.479726,710.843191 597.34375,708.308594 C623.46407,707.287928 652.626351,700.541234 671.3125,682.261719 C718.425244,636.174205 718.454552,611.992889 697.359375,571.132812 C696.743505,569.939909 694.838542,570.208333 693.578125,569.746094" id="bg-white"></path>
        </g>
    </g>
</svg>