<?xml version="1.0" encoding="UTF-8" standalone="no"?>
<svg width="136px" height="55px" viewBox="0 0 136 55" version="1.1" xmlns="http://www.w3.org/2000/svg" xmlns:xlink="http://www.w3.org/1999/xlink">
    <!-- Generator: Sketch 39.1 (31720) - http://www.bohemiancoding.com/sketch -->
    <title>logo-white</title>
    <desc>Created with Sketch.</desc>
    <defs></defs>
    <g id="Page-1" stroke="none" stroke-width="1" fill="none" fill-rule="evenodd">
        <g id="Tablet-Portrait-Copy" transform="translate(-734.000000, -75.000000)" fill="#FFFFFF">
            <path d="M744.096,100.272 C744.144,99.936 744.048,99.6 744,99.264 C743.904,98.784 743.856,98.304 743.568,97.92 C743.328,97.536 743.088,97.2 742.8,96.864 C742.464,96.48 742.08,96.192 741.648,95.952 C741.12,95.664 740.592,95.376 740.016,95.136 C739.776,95.088 739.584,94.896 739.44,94.752 C739.2,94.416 738.912,94.128 738.624,93.888 C738.48,93.744 738.336,93.552 738.096,93.552 C738.048,93.504 738,93.456 738.048,93.408 C738.288,93.216 738.432,93.024 738.672,92.832 C739.056,92.496 739.392,92.112 739.776,91.776 C740.112,91.44 740.544,91.104 740.976,90.864 C741.024,90.816 741.12,90.72 741.216,90.72 C741.552,90.576 741.84,90.336 742.176,90.144 C742.416,90.048 742.608,89.952 742.8,89.904 C743.136,89.808 743.424,89.808 743.76,89.76 C744.192,89.616 744.576,89.424 744.816,89.04 C744.912,88.896 744.96,88.704 745.056,88.56 C745.296,88.32 745.536,88.08 745.536,87.744 C745.584,87.6 745.632,87.504 745.632,87.408 C745.632,87.168 745.68,86.928 745.584,86.736 C745.536,86.592 745.488,86.496 745.44,86.352 C745.44,86.064 745.344,85.824 745.248,85.584 C745.152,85.44 745.008,85.44 744.96,85.344 C744.816,85.2 744.672,85.056 744.528,84.96 C744.48,84.864 744.432,84.864 744.384,84.864 C744.096,84.768 743.808,84.768 743.472,84.864 C743.04,84.96 742.608,85.104 742.176,85.248 C741.696,85.44 741.168,85.632 740.736,85.872 C740.496,85.968 740.256,86.112 740.016,86.208 C739.584,86.4 739.248,86.64 738.864,86.832 C738.624,86.976 738.432,87.12 738.24,87.264 C738,87.456 737.712,87.6 737.52,87.792 C737.088,88.176 736.656,88.512 736.272,88.848 C735.888,89.232 735.456,89.664 735.168,90.144 C734.832,90.624 734.496,91.152 734.256,91.68 C734.064,92.208 734.16,92.784 734.208,93.312 C734.256,93.6 734.352,93.888 734.448,94.176 C734.496,94.416 734.592,94.608 734.736,94.8 C734.928,95.088 735.216,95.28 735.36,95.568 C735.36,95.616 735.36,95.616 735.408,95.616 C735.648,95.808 735.888,96 736.128,96.192 C736.224,96.288 736.32,96.336 736.416,96.432 C736.512,96.624 736.704,96.768 736.848,96.912 C737.136,97.2 737.472,97.488 737.808,97.728 C738.24,98.064 738.672,98.448 739.2,98.688 C739.536,98.88 739.872,99.168 740.208,99.456 C740.496,99.6 740.688,99.888 740.976,99.984 C741.12,100.08 741.168,100.272 741.216,100.416 C741.216,100.464 741.168,100.56 741.216,100.56 C741.36,100.656 741.36,100.752 741.36,100.848 C741.312,101.088 741.408,101.328 741.504,101.568 C741.6,101.76 741.6,101.952 741.504,102.096 C741.36,102.432 741.216,102.72 741.024,102.96 C740.832,103.2 740.64,103.44 740.4,103.536 C740.256,103.632 740.112,103.68 739.968,103.68 C739.872,103.632 739.776,103.68 739.68,103.68 C739.44,103.68 739.2,103.776 738.96,103.776 L738.336,103.776 C738,103.776 737.664,103.872 737.328,103.824 C736.896,103.776 736.512,103.68 736.176,103.392 C735.888,103.152 735.84,102.816 735.744,102.528 C735.648,102.288 735.792,102.096 735.936,101.904 C736.224,101.568 736.608,101.28 736.8,100.848 C736.848,100.8 736.896,100.8 736.896,100.8 C737.088,100.608 737.328,100.608 737.52,100.416 C737.52,100.416 737.568,100.368 737.616,100.416 C737.76,100.512 737.952,100.56 738.144,100.512 C738.336,100.416 738.384,100.32 738.288,100.128 C738.288,100.08 738.24,99.984 738.24,99.936 C738.144,99.552 737.856,99.36 737.568,99.168 C737.376,99.024 737.184,99.024 736.944,99.024 C736.608,99.024 736.32,99.168 735.984,99.312 C735.552,99.504 735.216,99.84 734.928,100.224 C734.544,100.752 734.208,101.232 734.064,101.904 C733.968,102.384 734.016,102.864 734.16,103.296 C734.304,103.68 734.448,104.016 734.736,104.352 C734.928,104.544 735.12,104.64 735.312,104.832 C735.648,105.264 736.128,105.408 736.608,105.648 C736.656,105.696 736.752,105.744 736.848,105.696 C736.848,105.648 736.896,105.696 736.896,105.696 C736.944,105.792 737.04,105.84 737.088,105.744 C737.136,105.696 737.184,105.696 737.184,105.744 C737.232,105.792 737.328,105.792 737.376,105.792 C737.616,105.744 737.856,105.696 738.096,105.936 C738.096,105.936 738.192,105.984 738.192,105.888 C738.192,105.792 738.288,105.84 738.336,105.84 C738.48,105.84 738.576,105.888 738.672,105.792 C738.912,105.6 739.152,105.552 739.44,105.648 C739.536,105.648 739.584,105.648 739.632,105.6 C739.92,105.552 740.16,105.408 740.448,105.36 C740.592,105.36 740.64,105.168 740.688,105.168 C740.832,105.12 740.928,105.12 741.024,105.024 C741.072,104.976 741.12,104.928 741.168,104.88 C741.456,104.736 741.744,104.64 741.984,104.448 C742.128,104.352 742.272,104.304 742.416,104.208 C742.56,104.112 742.8,104.064 742.896,103.872 C743.136,103.584 743.328,103.248 743.472,102.96 C743.712,102.48 743.808,102 743.952,101.52 C744.048,101.088 744.096,100.704 744.096,100.272 L744.096,100.272 Z M750.992,84 C750.992,84.144 750.944,84.288 750.848,84.432 C750.416,85.152 750.176,86.016 749.888,86.784 C749.6,87.408 749.456,88.128 749.216,88.8 C748.88,89.856 748.688,91.008 748.304,92.064 C747.968,92.976 747.824,93.936 747.584,94.848 C747.488,95.28 747.344,95.712 747.344,96.144 C747.248,96.864 747.056,98.064 747.104,98.784 C747.152,99.648 747.248,100.032 747.248,100.848 C747.248,101.232 747.296,101.568 747.44,101.904 C747.536,102.096 747.584,102.336 747.68,102.576 C747.872,103.152 748.16,103.728 748.592,104.208 C748.976,104.688 749.552,104.784 750.032,105.12 C750.56,105.456 751.136,105.456 751.712,105.456 C752.624,105.456 753.248,104.928 753.92,104.4 C754.112,104.208 754.112,103.872 754.4,103.776 C754.496,103.728 754.544,103.536 754.496,103.44 C754.4,103.2 754.544,103.2 754.64,103.104 C754.832,103.008 754.832,102.912 754.688,102.672 C754.64,102.576 754.544,102.48 754.4,102.528 C754.112,102.672 753.824,102.768 753.68,103.104 C753.584,103.296 753.392,103.392 753.248,103.536 C752.864,103.92 752.384,103.92 751.952,104.016 C751.904,104.016 751.856,104.016 751.856,103.968 C751.664,103.728 751.424,103.488 751.328,103.152 C751.28,102.72 751.232,102.288 751.136,101.808 C751.04,101.088 751.376,100.416 751.424,99.696 L751.424,99.6 C751.664,99.408 751.616,99.168 751.616,98.88 C751.616,98.736 751.664,98.592 751.664,98.448 C751.856,96.96 752.288,95.52 752.624,94.08 C752.96,92.736 753.296,91.44 753.728,90.096 C753.968,89.472 754.112,88.848 754.448,88.272 C754.784,87.6 754.88,86.544 755.216,85.872 C755.648,85.008 755.888,84.048 756.224,83.136 C756.416,82.752 756.8,82.896 757.088,82.848 C757.76,82.8 758.384,82.608 759.056,82.56 C759.584,82.512 760.112,82.56 760.64,82.32 C760.976,82.416 761.36,82.32 761.696,82.32 L763.52,82.32 C763.664,82.32 763.76,82.32 763.808,82.128 C763.904,81.84 764.096,81.744 764.384,81.744 L764.384,81.648 C764.192,81.552 764,81.36 763.76,81.312 C763.28,81.264 762.848,81.12 762.368,81.168 L762.128,81.168 C761.408,81.072 760.736,81.072 760.016,81.12 C759.104,81.168 758.192,81.264 757.28,80.976 C757.28,80.688 757.328,80.4 757.424,80.112 C757.616,79.536 757.76,78.912 757.904,78.288 C758.096,77.424 757.856,76.704 757.376,76.032 C757.232,75.84 757.04,75.792 756.896,75.6 C756.704,75.36 756.464,75.312 756.176,75.264 C756.032,75.264 755.936,75.312 755.888,75.408 C755.696,75.84 755.36,76.128 755.12,76.464 C754.496,77.376 754.064,78.384 753.488,79.296 C753.056,79.968 752.768,80.64 752.384,81.312 C752.24,81.6 752.096,81.696 751.808,81.696 C751.28,81.744 750.704,81.84 750.176,81.888 C749.744,81.984 749.264,81.984 748.832,81.984 C748.592,82.032 748.352,81.936 748.112,81.936 C747.776,81.888 747.44,81.888 747.104,81.84 C746.48,81.744 745.856,81.504 745.28,81.36 C744.896,81.312 744.464,81.168 744.08,81.6 C743.84,81.936 743.744,82.272 743.936,82.656 C744.128,82.944 744.32,83.232 744.464,83.568 C744.656,83.904 744.944,84.048 745.28,84.096 C745.472,84.096 745.664,84.096 745.856,84.144 C746.384,84.288 746.864,84.288 747.344,84.24 C747.584,84.192 747.824,84.24 748.064,84.288 C748.208,84.288 748.352,84.288 748.496,84.336 C749.264,84.384 750.032,84.144 750.752,84 C750.848,83.952 750.896,83.952 750.992,84 L750.992,84 Z M752.816,104.16 C752.816,104.256 752.72,104.256 752.672,104.304 C752.624,104.352 752.576,104.352 752.576,104.304 C752.576,104.16 752.672,104.16 752.72,104.112 C752.768,104.112 752.816,104.16 752.816,104.16 L752.816,104.16 Z M752.432,104.64 C752.432,104.688 752.384,104.688 752.336,104.688 C752.288,104.688 752.288,104.688 752.288,104.592 C752.288,104.544 752.288,104.496 752.336,104.544 C752.432,104.544 752.432,104.592 752.432,104.64 L752.432,104.64 Z M775.024,84.576 C774.88,84.48 774.832,84.576 774.736,84.624 C774.64,84.624 774.592,84.624 774.544,84.528 C774.544,84.48 774.592,84.432 774.64,84.384 C774.688,84.336 774.88,84.288 774.784,84.192 C774.688,84.096 774.592,83.952 774.4,83.952 C773.92,84.048 773.44,84 772.912,84.144 C772.096,84.336 771.232,84.48 770.464,84.816 C769.36,85.248 768.352,85.872 767.44,86.64 C766.912,87.072 766.288,87.456 765.808,87.936 C765.76,88.032 765.616,88.08 765.424,88.176 C765.712,87.552 765.616,87.12 765.232,86.688 C765.136,86.64 765.088,86.592 765.088,86.544 C764.8,86.064 764.32,85.68 764.176,85.152 C764.128,85.008 764.608,85.296 764.512,85.296 C764.272,85.296 764.032,85.2 763.792,85.152 C762.976,84.864 762.544,84.96 762.016,85.584 C761.824,85.872 761.632,86.112 761.392,86.352 L758.176,95.472 C758.224,95.472 758.224,95.424 758.272,95.424 C758.224,95.616 758.224,95.76 758.176,95.904 C757.744,97.536 757.408,99.216 757.168,100.896 C757.12,101.184 757.12,101.52 757.312,101.712 C757.6,102 757.984,102.144 758.176,102.48 C758.224,102.528 758.32,102.528 758.368,102.576 C758.56,102.672 758.752,102.768 758.944,102.864 C759.088,102.96 758.752,102.72 758.8,103.008 C758.8,103.152 759.088,103.248 759.136,103.2 C759.28,103.056 760.048,103.392 760.192,103.296 C760.672,102.96 760.672,102.48 761.008,102 C761.152,101.856 761.344,101.856 761.44,101.664 C761.68,101.136 762.064,100.608 762.256,100.032 C762.496,99.264 762.88,98.544 763.216,97.824 C763.6,97.056 764.08,96.384 764.368,95.568 C764.704,94.704 765.184,93.888 765.664,93.072 C766.144,92.352 766.672,91.68 767.152,90.96 C767.872,90 768.592,89.088 769.6,88.416 C770.416,87.84 771.28,87.312 772.24,87.072 C772.816,86.88 773.44,86.64 774.064,86.496 C774.4,86.448 774.736,86.064 774.688,85.872 C774.592,85.584 774.784,85.488 774.928,85.344 C774.976,85.248 775.12,85.296 775.168,85.152 C774.88,85.008 774.928,84.768 775.024,84.576 L775.024,84.576 Z M787.248,78.48 C787.296,78.192 787.2,78 786.96,77.808 C786.672,77.568 786.288,77.472 785.904,77.328 C785.616,77.232 785.28,77.232 784.944,77.28 C784.368,77.376 783.984,77.568 783.504,77.76 C783.264,77.808 783.024,78 783.024,78.144 C782.976,78.384 782.784,78.528 782.592,78.672 C782.4,78.816 782.256,78.96 782.064,79.104 C781.68,79.44 781.392,79.824 781.2,80.256 C781.104,80.592 781.152,80.928 781.008,81.216 C780.768,81.792 781.2,82.416 782.112,82.704 C782.448,82.8 783.024,82.752 783.168,82.608 C783.264,82.416 783.6,82.656 783.744,82.512 C783.936,82.32 784.224,82.128 784.56,82.128 C785.04,82.128 785.28,81.648 785.52,81.408 L785.808,81.264 C785.904,81.216 786.048,81.168 786.096,81.072 C786.192,80.88 786.336,80.688 786.432,80.544 C786.768,80.112 786.816,79.584 787.056,79.152 C787.152,78.912 787.104,78.624 787.248,78.48 L787.248,78.48 Z M789.12,89.04 C789.072,89.04 788.928,89.088 788.88,89.136 C788.592,89.328 788.304,89.52 788.016,89.712 C788.016,89.616 787.968,89.568 787.968,89.424 C787.872,89.52 787.776,89.568 787.68,89.616 C786.912,90.432 786.096,91.2 785.328,92.016 L785.28,92.016 C784.416,92.88 783.552,93.696 782.64,94.512 C781.824,95.28 781.008,96 780.192,96.768 C780.144,96.816 780.144,96.864 780.096,96.864 C779.328,97.488 778.416,98.112 778.128,98.496 C778.08,98.496 778.08,98.544 778.032,98.544 C777.984,98.592 777.984,98.64 777.936,98.592 C777.84,98.544 777.84,98.496 777.888,98.448 C778.08,98.064 778.128,97.632 778.224,97.248 C778.464,96.336 778.8,95.472 778.992,94.608 C778.992,94.56 779.04,94.464 779.04,94.416 C779.52,93.024 780.192,91.68 780.576,90.24 C780.624,89.904 780.768,89.616 780.864,89.28 C780.96,88.8 781.104,88.368 781.296,87.984 C781.536,87.504 781.68,86.976 781.824,86.496 C781.968,85.968 781.728,85.296 781.392,85.104 C781.056,84.912 780.72,84.72 780.336,84.528 C780,84.336 779.568,84.384 779.184,84.432 C778.848,84.528 778.704,84.768 778.56,85.008 C778.464,85.152 778.416,85.248 778.368,85.392 C777.984,86.112 777.6,86.784 777.264,87.504 C776.496,88.896 775.92,90.288 775.344,91.776 C775.056,92.544 774.816,93.36 774.528,94.128 C774.288,94.8 774.096,95.472 773.952,96.144 C773.664,97.584 773.952,98.832 774.672,99.984 C774.816,100.224 775.008,100.464 775.104,100.704 C775.2,100.896 775.344,101.04 775.488,101.184 C775.728,101.28 775.728,101.088 775.968,101.184 C776.16,101.328 776.4,101.472 776.64,101.616 C776.832,101.712 777.12,101.712 777.408,101.712 C777.456,101.664 777.552,101.664 777.648,101.616 C777.888,101.616 778.176,101.616 778.464,101.568 C778.56,101.52 778.704,101.52 778.848,101.424 C779.232,101.04 779.76,100.8 780.144,100.368 C780.48,99.984 780.816,99.936 781.152,99.6 C781.2,99.552 781.776,98.976 781.968,98.64 C782.304,98.208 782.64,97.824 782.976,97.44 C783.312,97.008 783.696,96.624 784.08,96.24 C784.32,95.952 784.608,95.712 784.8,95.376 C784.992,95.04 785.232,94.752 785.472,94.464 C785.664,94.272 785.808,94.08 785.856,93.888 C785.904,93.744 785.952,93.648 786.048,93.552 C786.528,93.024 787.056,92.544 787.392,91.968 C787.776,91.344 788.208,90.768 788.688,90.24 C788.976,89.952 789.12,89.664 789.168,89.328 C789.168,89.184 789.216,89.088 789.12,89.04 L789.12,89.04 Z M809.984,93.024 C809.936,93.024 809.84,93.024 809.84,93.072 C809.36,93.36 808.88,93.696 808.448,94.032 C808.016,94.416 807.584,94.848 807.152,95.232 C806.96,95.424 806.72,95.52 806.528,95.664 C806.24,95.904 805.952,96.144 805.664,96.384 C805.472,96.528 805.328,96.72 805.184,96.864 C804.512,97.536 803.792,98.16 803.12,98.832 C802.784,99.12 802.448,99.456 802.112,99.792 C801.776,100.08 801.392,100.368 801.008,100.656 C800.624,100.896 800.288,101.088 799.904,101.28 C799.808,101.328 799.664,101.328 799.568,101.328 C799.424,101.376 799.328,101.328 799.28,101.232 C799.28,101.232 799.28,101.232 799.28,101.184 C799.232,100.896 799.136,100.608 799.184,100.32 C799.232,99.648 799.328,98.976 799.52,98.304 C799.808,97.248 800.24,96.24 800.576,95.184 C800.768,94.56 801.152,93.984 801.392,93.36 C801.728,92.688 802.064,92.064 802.496,91.44 C802.88,90.912 803.36,90.384 803.696,89.808 C803.984,89.376 804.176,88.944 804.512,88.512 C805.04,87.84 805.088,87.024 804.656,86.256 C804.224,85.44 803.408,85.152 802.544,85.104 C802.16,85.056 801.776,85.152 801.44,85.344 C800.48,85.872 799.616,86.544 798.896,87.36 C798.224,88.128 797.504,88.8 796.88,89.568 C795.92,90.72 794.912,91.776 794.048,92.976 C793.856,93.264 793.616,93.552 793.28,93.792 C793.28,93.6 793.376,93.504 793.424,93.36 C793.52,93.024 793.76,92.736 793.808,92.4 C793.904,91.968 794,91.584 794.096,91.2 C794.288,90.528 794.432,89.856 794.72,89.232 C795.008,88.512 795.248,87.792 795.248,86.976 C795.296,86.64 795.248,86.304 795.248,85.968 C795.248,85.44 795.056,85.056 794.624,84.864 C794.384,84.768 794.288,84.624 794.192,84.384 C794.192,84.288 794.144,84.192 794.096,84.048 C793.904,84.096 793.904,84.336 793.712,84.384 C793.76,84.144 793.952,84.048 794,83.856 C793.856,83.808 793.808,83.856 793.712,83.904 C793.616,84.096 793.472,84 793.376,83.904 C793.04,83.568 792.8,83.568 792.512,83.856 C792.416,83.952 792.368,84.048 792.272,84.096 C792.08,84.24 791.936,84.336 791.792,84.48 C790.256,87.936 788.096,92.736 787.088,94.992 C786.896,95.664 786.704,96.336 786.416,96.96 C786.176,97.584 785.888,98.256 785.744,98.928 C785.408,100.176 785.12,101.472 785.696,102.768 C785.792,102.912 785.792,103.104 786.032,103.248 C786.032,103.008 786.224,102.912 786.368,102.72 C786.416,102.912 786.512,103.008 786.56,103.104 C786.608,103.152 786.512,103.2 786.608,103.248 C786.8,103.008 786.896,103.008 787.136,103.296 C787.232,103.248 787.184,103.152 787.328,103.152 C787.376,103.344 787.568,103.488 787.712,103.68 C787.856,103.92 788.144,103.92 788.432,103.776 C788.672,103.68 788.96,103.68 789.104,103.44 C789.104,103.44 789.2,103.44 789.248,103.488 C789.296,103.536 789.344,103.488 789.392,103.44 C789.824,103.008 790.16,102.528 790.448,102.048 C790.784,101.568 791.168,101.088 791.312,100.512 C791.36,100.224 791.696,100.128 791.744,99.84 C792.224,98.448 793.424,97.008 794.384,95.856 C794.768,95.376 795.2,94.992 795.632,94.56 C796.4,93.84 797.072,93.024 797.744,92.16 C798.032,91.776 798.416,91.44 798.8,91.056 C798.32,92.208 797.84,93.36 797.456,94.512 C797.12,95.472 796.784,96.384 796.544,97.392 C796.352,98.16 796.256,98.976 796.208,99.792 C796.16,100.464 796.16,101.136 796.448,101.808 C796.496,101.904 796.544,102 796.64,102.096 C796.688,102.144 796.688,102.192 796.736,102.24 C796.928,102.432 797.024,102.672 797.168,102.864 C797.36,103.056 797.552,103.2 797.744,103.392 C798.08,103.728 798.608,103.68 799.04,103.728 C799.28,103.728 799.616,103.728 799.856,103.584 C800.528,103.2 801.2,102.864 801.776,102.336 C802.016,102.048 802.304,101.808 802.544,101.568 C803.312,100.8 804.032,100.08 804.752,99.36 C805.328,98.736 805.904,98.112 806.48,97.488 C806.96,97.008 807.44,96.48 807.872,95.952 C808.16,95.664 808.4,95.28 808.688,95.088 C809.024,94.848 809.312,94.56 809.552,94.272 C809.744,94.08 809.936,93.84 810.032,93.6 C810.128,93.456 810.176,93.216 809.984,93.024 L809.984,93.024 Z M790.016,102.24 C790.016,102.288 790.016,102.24 790.016,102.24 C790.016,102.144 790.016,102.096 790.064,102.096 L790.112,102.144 C790.112,102.192 790.064,102.24 790.016,102.24 L790.016,102.24 Z M831.664,89.664 C831.52,89.664 831.472,89.712 831.376,89.712 C831.184,89.76 830.992,89.904 830.848,90 C829.888,90.528 828.976,91.056 828.016,91.632 L827.92,91.728 C827.2,92.304 826.432,92.784 825.712,93.312 C824.512,94.224 823.312,95.088 822.16,96 C822.016,96.096 821.968,96.144 821.68,96.288 C821.872,95.472 821.92,94.896 822.016,94.32 C822.256,92.88 822.352,91.632 822.352,89.952 C822.352,89.184 822.304,88.464 822.304,87.648 L822.304,86.4 L822.304,85.872 C822.304,85.728 822.352,85.536 822.448,85.344 C822.496,85.296 822.448,85.248 822.448,85.2 C822.4,84.96 822.352,84.768 822.208,84.576 C822.016,84.384 821.824,84.192 821.68,84 C821.584,83.904 821.536,83.856 821.488,83.76 C821.344,83.568 821.152,83.376 820.912,83.28 C820.864,83.232 820.816,83.232 820.816,83.184 L820.768,83.184 L820.72,83.136 C820.528,82.848 820.336,82.704 820.048,82.512 C819.568,82.128 818.992,82.08 818.368,82.032 C817.504,82.032 816.736,82.32 816.016,82.704 C814.432,83.52 813.184,84.768 812.032,86.16 C811.408,86.88 810.88,87.744 810.352,88.608 C809.248,90.48 808.384,92.496 807.904,94.656 C807.712,95.424 807.616,96.24 807.568,97.008 C807.52,97.344 807.52,97.728 807.568,98.064 C807.616,98.688 807.904,99.264 808.144,99.792 C808.432,100.32 808.912,100.608 809.536,100.656 C809.632,100.704 809.728,100.704 809.824,100.752 C810.112,100.848 810.4,100.896 810.736,100.992 C811.312,101.088 811.936,100.848 812.464,100.512 L812.56,100.416 C812.8,99.984 813.232,99.744 813.568,99.456 C813.952,99.072 814.288,98.736 814.528,98.304 C814.72,97.776 815.104,97.344 815.296,96.864 L815.44,96.72 C815.536,96.624 815.584,96.576 815.632,96.48 C815.68,96.384 815.728,96.288 815.776,96.192 C815.968,95.952 816.112,95.616 816.304,95.328 C816.4,95.232 816.448,95.088 816.544,94.992 C816.784,94.56 816.928,94.176 817.216,93.792 C817.36,93.36 817.648,93.024 817.888,92.64 C818.032,92.496 818.176,92.688 818.176,92.688 C818.128,93.552 817.984,94.32 817.888,95.088 C817.792,96.144 817.6,97.2 817.456,98.256 C817.408,98.88 817.312,99.456 817.216,99.984 C817.12,100.224 817.072,100.32 816.928,100.464 C816.064,101.184 815.248,102.048 814.432,102.816 C814.288,103.008 814.096,103.152 813.904,103.296 C813.712,103.44 813.52,103.584 813.376,103.776 C812.944,104.16 812.56,104.544 812.224,104.976 C812.176,105.072 812.08,105.216 811.984,105.312 C811.888,105.408 811.84,105.504 811.744,105.6 C811.408,105.888 811.12,106.128 810.832,106.416 C810.544,106.656 810.256,106.992 809.968,107.28 C809.68,107.568 809.44,107.904 809.152,108.192 C808.144,109.296 807.088,110.304 806.224,111.504 C805.744,112.128 805.264,112.656 804.88,113.28 C804.256,114.144 803.728,115.008 803.056,115.824 C802.048,116.976 801.376,118.32 800.512,119.568 C800.032,120.24 799.696,120.96 799.312,121.68 C798.832,122.496 798.448,123.36 798.16,124.272 C797.872,124.944 797.728,125.664 797.584,126.336 C797.488,126.864 797.536,127.392 797.776,127.824 C798.112,128.4 798.496,128.88 799.072,129.216 C799.744,129.648 800.368,129.792 801.088,129.552 C801.328,129.504 801.52,129.504 801.76,129.648 L801.808,129.696 C802.624,129.792 803.392,129.648 804.112,129.36 C804.304,129.312 804.496,129.264 804.64,129.12 C804.976,128.832 805.36,128.496 805.648,128.112 C805.888,127.728 806.224,127.392 806.608,127.2 C807.04,126.912 807.424,126.528 807.808,126.24 C808,126.096 808.144,125.904 808.336,125.712 C808.576,125.376 808.768,124.992 809.008,124.656 C809.056,124.608 809.056,124.56 809.104,124.512 C809.2,124.272 809.296,124.08 809.488,123.888 C809.68,123.648 809.824,123.408 810.016,123.12 C810.16,122.832 810.352,122.592 810.544,122.304 C810.88,121.872 811.168,121.392 811.456,120.912 C811.744,120.432 811.984,119.904 812.272,119.376 C812.752,118.464 813.232,117.6 813.76,116.784 C813.904,116.544 814.096,116.304 814.528,115.776 C814.528,116.16 814.528,116.256 814.48,116.304 C814.48,116.352 814.432,116.4 814.432,116.448 C814.384,116.496 814.384,116.544 814.432,116.592 L814.24,116.544 L814.288,116.496 C814.48,115.968 814.816,115.536 815.008,115.008 C815.2,114.48 815.536,114.048 815.872,113.568 C816.352,112.992 816.688,112.32 816.976,111.6 C817.36,110.544 817.648,109.44 818.176,108.432 C818.8,107.232 819.232,105.936 819.568,104.592 C819.904,103.248 820.192,101.856 820.624,100.56 C820.816,100.08 820.96,99.6 821.104,99.072 L821.584,98.592 C821.872,98.256 822.208,97.92 822.592,97.632 C823.12,97.152 823.648,96.672 824.176,96.192 C824.944,95.52 825.712,94.848 826.48,94.176 C826.528,94.128 826.576,94.08 826.624,94.08 L826.672,94.032 C826.96,93.84 827.2,93.6 827.44,93.36 C827.776,93.072 828.112,92.784 828.448,92.448 C828.592,92.352 828.784,92.256 828.928,92.16 C829.12,91.968 829.36,91.776 829.6,91.632 C829.84,91.44 830.08,91.248 830.272,91.056 C830.416,90.864 830.608,90.72 830.8,90.576 C830.992,90.432 831.136,90.288 831.328,90.144 C831.472,90.048 831.52,90 831.568,89.904 C831.616,89.856 831.616,89.808 831.616,89.76 L831.664,89.664 Z M818.512,85.392 C818.56,85.728 818.56,85.92 818.512,86.112 C818.512,86.736 818.464,87.408 818.464,88.08 C818.464,88.224 818.368,88.368 818.272,88.464 C817.168,89.616 816.304,90.96 815.44,92.256 C814.912,93.024 814.336,93.744 813.712,94.368 C813.088,95.04 812.512,95.76 811.936,96.48 C811.888,96.528 811.84,96.576 811.792,96.672 C811.696,96.72 811.648,96.768 811.36,96.864 C811.408,96.336 811.504,96 811.6,95.712 C811.888,94.656 812.176,93.648 812.512,92.688 C812.704,92.208 812.992,91.776 813.232,91.344 C813.472,90.96 813.712,90.576 813.952,90.24 C814.192,89.856 814.432,89.472 814.624,89.04 C814.768,88.848 814.912,88.704 815.104,88.56 C815.584,88.176 815.92,87.6 816.304,87.12 C816.784,86.4 817.504,85.92 818.224,85.488 C818.272,85.488 818.32,85.44 818.512,85.392 L818.512,85.392 Z M814.768,105.504 C814.96,105.12 815.296,104.832 815.824,104.448 C815.824,104.832 815.776,104.928 815.776,105.024 L815.68,105.168 C815.68,105.216 815.68,105.264 815.632,105.312 C815.296,106.368 814.864,107.376 814.336,108.336 C813.904,109.152 813.568,110.064 813.136,110.88 C812.464,112.32 811.84,113.808 811.024,115.2 C810.304,116.4 809.68,117.648 808.912,118.848 C808.528,119.376 808.192,119.904 807.808,120.384 C807.232,121.056 806.8,121.824 806.224,122.496 C805.792,122.928 805.36,123.312 804.976,123.792 C804.256,124.704 803.44,125.616 802.528,126.432 C802.096,126.816 801.568,127.008 801.04,127.296 C800.992,127.344 800.896,127.392 800.8,127.44 C800.704,127.44 800.608,127.488 800.368,127.584 C800.272,127.056 800.416,126.816 800.608,126.624 C800.944,126.24 801.088,125.76 801.232,125.28 C801.472,124.608 801.76,123.984 801.952,123.312 C802.192,122.784 802.432,122.256 802.768,121.824 C802.912,121.584 803.056,121.296 803.152,121.008 C803.248,120.816 803.344,120.624 803.488,120.432 C803.968,119.808 804.352,119.136 804.736,118.416 C805.168,117.696 805.6,116.976 806.128,116.256 C806.56,115.632 806.992,115.056 807.424,114.384 C807.616,114 807.904,113.664 808.144,113.328 C808.432,113.04 808.672,112.656 808.96,112.32 C809.344,111.936 809.68,111.552 810.016,111.12 C810.448,110.592 810.88,110.016 811.36,109.488 C811.888,108.912 812.416,108.384 812.944,107.76 C813.328,107.328 813.664,106.896 814.048,106.464 C814.336,106.128 814.576,105.84 814.768,105.504 L814.768,105.504 Z M830.448,103.2 C830.544,103.44 830.544,103.44 830.736,103.296 C830.784,103.248 830.832,103.2 830.832,103.248 C830.928,103.296 831.024,103.248 831.072,103.152 C831.12,103.152 831.168,103.104 831.216,103.152 C831.312,103.248 831.36,103.2 831.408,103.104 C831.552,102.912 831.744,102.816 831.984,102.768 C832.32,102.672 832.512,102.48 832.656,102.144 C832.8,101.76 832.992,101.328 832.704,100.896 C832.656,100.752 832.608,100.56 832.464,100.464 C832.416,100.416 832.368,100.368 832.368,100.272 C832.368,100.176 832.272,100.128 832.224,100.08 C831.936,99.936 831.696,99.744 831.408,99.6 C831.36,99.6 831.264,99.504 831.168,99.552 C830.832,99.648 830.592,99.792 830.352,100.032 C829.968,100.416 829.728,100.896 829.488,101.376 C829.296,101.712 829.44,102.048 829.536,102.336 C829.584,102.576 829.776,102.864 830.016,103.056 C830.112,103.056 830.064,102.864 830.16,102.912 L830.16,103.056 C830.112,103.152 830.112,103.296 830.208,103.344 C830.352,103.44 830.352,103.2 830.448,103.2 L830.448,103.2 Z M843.92,100.032 C844.016,100.32 844.112,100.56 844.304,100.8 C844.448,100.992 844.496,101.136 844.544,101.328 C844.592,101.76 844.88,102.048 845.168,102.336 C845.408,102.624 845.744,102.816 846.08,103.008 C846.32,103.104 846.56,103.2 846.8,103.296 C847.136,103.344 847.472,103.296 847.76,103.152 C847.952,103.008 848.144,102.864 848.336,102.768 C848.528,102.72 848.624,102.624 848.768,102.528 C849.104,102.336 849.392,102.096 849.728,101.856 C850.112,101.568 850.544,101.328 850.688,100.752 C850.688,100.704 850.736,100.656 850.784,100.656 C851.024,100.416 851.12,100.128 851.264,99.888 C851.6,99.312 852.032,98.736 852.416,98.256 C852.848,97.776 853.136,97.248 853.424,96.672 C853.712,96.096 853.952,95.52 854.336,95.04 C854.384,94.944 854.432,94.8 854.48,94.704 C854.768,94.176 855.056,93.696 855.392,93.216 C855.68,92.784 856.16,92.448 856.112,91.824 C856.112,91.824 856.112,91.824 856.112,91.776 C856.256,91.584 856.352,91.344 856.4,91.104 C856.4,90.912 856.4,90.864 856.304,90.864 C856.16,90.816 856.016,90.816 855.872,90.864 C855.632,91.008 855.392,91.152 855.2,91.344 C854.528,92.016 853.952,92.784 853.376,93.504 C852.512,94.56 851.84,95.712 851.024,96.768 C850.256,97.776 849.488,98.784 848.672,99.744 C848.336,100.176 847.952,100.464 847.52,100.656 C847.424,100.512 847.472,100.368 847.472,100.224 C847.568,99.552 847.712,98.88 847.808,98.16 C847.952,97.392 848.048,96.624 848.192,95.856 C848.24,95.472 848.336,95.136 848.432,94.752 C848.576,93.84 848.864,92.976 849.152,92.112 C849.296,91.68 849.44,91.248 849.488,90.768 C849.536,90.432 849.632,90.192 849.728,89.904 C849.872,89.424 849.968,88.896 850.112,88.416 L850.112,88.128 C850.112,87.744 849.968,87.456 849.824,87.12 C849.728,86.928 849.68,86.64 849.536,86.448 C849.152,86.064 848.768,85.68 848.24,85.536 C847.808,85.392 847.52,85.296 847.232,85.728 C847.136,85.824 847.04,85.824 846.944,85.728 C846.704,85.536 846.464,85.344 846.224,85.104 C845.888,84.672 845.312,84.672 844.88,84.384 C844.544,84.432 844.256,84.432 843.968,84.624 C843.44,84.96 842.912,85.296 842.384,85.632 C841.76,86.016 841.184,86.496 840.704,87.072 C840.032,87.888 839.456,88.704 838.832,89.52 C838.544,89.904 838.304,90.288 838.016,90.72 C837.536,91.488 837.152,92.352 836.672,93.12 C836.48,93.552 836.24,93.936 836.096,94.368 C835.712,95.472 835.376,96.576 835.232,97.776 C835.184,98.304 835.088,98.88 835.136,99.408 C835.136,100.32 835.52,101.04 835.952,101.808 C836,101.904 836.048,102 836.144,102.048 C836.768,102.576 837.392,103.2 838.304,103.104 C838.352,103.104 838.448,103.152 838.496,103.152 C838.832,103.2 839.12,103.296 839.456,103.2 C839.984,103.056 840.56,103.056 841.04,102.672 C841.088,102.624 841.136,102.624 841.184,102.624 C841.664,102.432 842.048,102.096 842.432,101.76 C842.816,101.424 843.152,101.04 843.44,100.56 C843.584,100.368 843.728,100.224 843.92,100.032 L843.92,100.032 Z M846.416,87.6 C846.032,88.752 845.696,89.856 845.36,90.96 C845.072,91.92 844.736,92.88 844.496,93.888 C844.4,94.176 844.256,94.368 844.112,94.56 C843.584,95.328 843.104,96.096 842.624,96.912 C842,98.064 841.328,99.12 840.512,100.128 C840.128,100.512 839.744,100.896 839.312,101.232 C838.976,101.472 838.832,101.376 838.736,100.992 C838.688,100.896 838.688,100.8 838.688,100.704 C838.784,100.32 838.88,99.936 838.928,99.6 C838.976,99.216 839.168,98.928 839.264,98.592 C839.312,98.352 839.408,98.112 839.456,97.92 C839.744,96.864 840.224,95.952 840.656,94.992 C840.848,94.56 841.136,94.128 841.328,93.696 C841.424,93.552 841.52,93.456 841.616,93.312 C841.904,92.976 842.096,92.592 842.288,92.208 C842.624,91.632 843.056,91.152 843.44,90.672 C843.68,90.384 844.064,90.24 844.304,89.952 C844.64,89.472 845.024,88.992 845.36,88.512 C845.552,88.224 845.792,88.032 846.032,87.744 C846.128,87.696 846.224,87.6 846.416,87.6 L846.416,87.6 Z M867.424,78.48 C867.472,78.192 867.376,78 867.136,77.808 C866.848,77.568 866.464,77.472 866.08,77.328 C865.792,77.232 865.456,77.232 865.12,77.28 C864.544,77.376 864.16,77.568 863.68,77.76 C863.44,77.808 863.2,78 863.2,78.144 C863.152,78.384 862.96,78.528 862.768,78.672 C862.576,78.816 862.432,78.96 862.24,79.104 C861.856,79.44 861.568,79.824 861.376,80.256 C861.28,80.592 861.328,80.928 861.184,81.216 C860.944,81.792 861.376,82.416 862.288,82.704 C862.624,82.8 863.2,82.752 863.344,82.608 C863.44,82.416 863.776,82.656 863.92,82.512 C864.112,82.32 864.4,82.128 864.736,82.128 C865.216,82.128 865.456,81.648 865.696,81.408 L865.984,81.264 C866.08,81.216 866.224,81.168 866.272,81.072 C866.368,80.88 866.512,80.688 866.608,80.544 C866.944,80.112 866.992,79.584 867.232,79.152 C867.328,78.912 867.28,78.624 867.424,78.48 L867.424,78.48 Z M869.296,89.04 C869.248,89.04 869.104,89.088 869.056,89.136 C868.768,89.328 868.48,89.52 868.192,89.712 C868.192,89.616 868.144,89.568 868.144,89.424 C868.048,89.52 867.952,89.568 867.856,89.616 C867.088,90.432 866.272,91.2 865.504,92.016 L865.456,92.016 C864.592,92.88 863.728,93.696 862.816,94.512 C862,95.28 861.184,96 860.368,96.768 C860.32,96.816 860.32,96.864 860.272,96.864 C859.504,97.488 858.592,98.112 858.304,98.496 C858.256,98.496 858.256,98.544 858.208,98.544 C858.16,98.592 858.16,98.64 858.112,98.592 C858.016,98.544 858.016,98.496 858.064,98.448 C858.256,98.064 858.304,97.632 858.4,97.248 C858.64,96.336 858.976,95.472 859.168,94.608 C859.168,94.56 859.216,94.464 859.216,94.416 C859.696,93.024 860.368,91.68 860.752,90.24 C860.8,89.904 860.944,89.616 861.04,89.28 C861.136,88.8 861.28,88.368 861.472,87.984 C861.712,87.504 861.856,86.976 862,86.496 C862.144,85.968 861.904,85.296 861.568,85.104 C861.232,84.912 860.896,84.72 860.512,84.528 C860.176,84.336 859.744,84.384 859.36,84.432 C859.024,84.528 858.88,84.768 858.736,85.008 C858.64,85.152 858.592,85.248 858.544,85.392 C858.16,86.112 857.776,86.784 857.44,87.504 C856.672,88.896 856.096,90.288 855.52,91.776 C855.232,92.544 854.992,93.36 854.704,94.128 C854.464,94.8 854.272,95.472 854.128,96.144 C853.84,97.584 854.128,98.832 854.848,99.984 C854.992,100.224 855.184,100.464 855.28,100.704 C855.376,100.896 855.52,101.04 855.664,101.184 C855.904,101.28 855.904,101.088 856.144,101.184 C856.336,101.328 856.576,101.472 856.816,101.616 C857.008,101.712 857.296,101.712 857.584,101.712 C857.632,101.664 857.728,101.664 857.824,101.616 C858.064,101.616 858.352,101.616 858.64,101.568 C858.736,101.52 858.88,101.52 859.024,101.424 C859.408,101.04 859.936,100.8 860.32,100.368 C860.656,99.984 860.992,99.936 861.328,99.6 C861.376,99.552 861.952,98.976 862.144,98.64 C862.48,98.208 862.816,97.824 863.152,97.44 C863.488,97.008 863.872,96.624 864.256,96.24 C864.496,95.952 864.784,95.712 864.976,95.376 C865.168,95.04 865.408,94.752 865.648,94.464 C865.84,94.272 865.984,94.08 866.032,93.888 C866.08,93.744 866.128,93.648 866.224,93.552 C866.704,93.024 867.232,92.544 867.568,91.968 C867.952,91.344 868.384,90.768 868.864,90.24 C869.152,89.952 869.296,89.664 869.344,89.328 C869.344,89.184 869.392,89.088 869.296,89.04 L869.296,89.04 Z" id="logo-white"></path>
        </g>
    </g>
</svg>