<?xml version="1.0" encoding="UTF-8" standalone="no"?>
<svg width="136px" height="55px" viewBox="0 0 136 55" version="1.1" xmlns="http://www.w3.org/2000/svg" xmlns:xlink="http://www.w3.org/1999/xlink">
    <!-- Generator: Sketch 39.1 (31720) - http://www.bohemiancoding.com/sketch -->
    <title>logo-blue</title>
    <desc>Created with Sketch.</desc>
    <defs></defs>
    <g id="Page-1" stroke="none" stroke-width="1" fill="none" fill-rule="evenodd">
        <g id="Tablet-Portrait" transform="translate(-318.000000, -77.000000)" fill="#0032FF">
            <path d="M328.096,102.272 C328.144,101.936 328.048,101.6 328,101.264 C327.904,100.784 327.856,100.304 327.568,99.92 C327.328,99.536 327.088,99.2 326.8,98.864 C326.464,98.48 326.08,98.192 325.648,97.952 C325.12,97.664 324.592,97.376 324.016,97.136 C323.776,97.088 323.584,96.896 323.44,96.752 C323.2,96.416 322.912,96.128 322.624,95.888 C322.48,95.744 322.336,95.552 322.096,95.552 C322.048,95.504 322,95.456 322.048,95.408 C322.288,95.216 322.432,95.024 322.672,94.832 C323.056,94.496 323.392,94.112 323.776,93.776 C324.112,93.44 324.544,93.104 324.976,92.864 C325.024,92.816 325.12,92.72 325.216,92.72 C325.552,92.576 325.84,92.336 326.176,92.144 C326.416,92.048 326.608,91.952 326.8,91.904 C327.136,91.808 327.424,91.808 327.76,91.76 C328.192,91.616 328.576,91.424 328.816,91.04 C328.912,90.896 328.96,90.704 329.056,90.56 C329.296,90.32 329.536,90.08 329.536,89.744 C329.584,89.6 329.632,89.504 329.632,89.408 C329.632,89.168 329.68,88.928 329.584,88.736 C329.536,88.592 329.488,88.496 329.44,88.352 C329.44,88.064 329.344,87.824 329.248,87.584 C329.152,87.44 329.008,87.44 328.96,87.344 C328.816,87.2 328.672,87.056 328.528,86.96 C328.48,86.864 328.432,86.864 328.384,86.864 C328.096,86.768 327.808,86.768 327.472,86.864 C327.04,86.96 326.608,87.104 326.176,87.248 C325.696,87.44 325.168,87.632 324.736,87.872 C324.496,87.968 324.256,88.112 324.016,88.208 C323.584,88.4 323.248,88.64 322.864,88.832 C322.624,88.976 322.432,89.12 322.24,89.264 C322,89.456 321.712,89.6 321.52,89.792 C321.088,90.176 320.656,90.512 320.272,90.848 C319.888,91.232 319.456,91.664 319.168,92.144 C318.832,92.624 318.496,93.152 318.256,93.68 C318.064,94.208 318.16,94.784 318.208,95.312 C318.256,95.6 318.352,95.888 318.448,96.176 C318.496,96.416 318.592,96.608 318.736,96.8 C318.928,97.088 319.216,97.28 319.36,97.568 C319.36,97.616 319.36,97.616 319.408,97.616 C319.648,97.808 319.888,98 320.128,98.192 C320.224,98.288 320.32,98.336 320.416,98.432 C320.512,98.624 320.704,98.768 320.848,98.912 C321.136,99.2 321.472,99.488 321.808,99.728 C322.24,100.064 322.672,100.448 323.2,100.688 C323.536,100.88 323.872,101.168 324.208,101.456 C324.496,101.6 324.688,101.888 324.976,101.984 C325.12,102.08 325.168,102.272 325.216,102.416 C325.216,102.464 325.168,102.56 325.216,102.56 C325.36,102.656 325.36,102.752 325.36,102.848 C325.312,103.088 325.408,103.328 325.504,103.568 C325.6,103.76 325.6,103.952 325.504,104.096 C325.36,104.432 325.216,104.72 325.024,104.96 C324.832,105.2 324.64,105.44 324.4,105.536 C324.256,105.632 324.112,105.68 323.968,105.68 C323.872,105.632 323.776,105.68 323.68,105.68 C323.44,105.68 323.2,105.776 322.96,105.776 L322.336,105.776 C322,105.776 321.664,105.872 321.328,105.824 C320.896,105.776 320.512,105.68 320.176,105.392 C319.888,105.152 319.84,104.816 319.744,104.528 C319.648,104.288 319.792,104.096 319.936,103.904 C320.224,103.568 320.608,103.28 320.8,102.848 C320.848,102.8 320.896,102.8 320.896,102.8 C321.088,102.608 321.328,102.608 321.52,102.416 C321.52,102.416 321.568,102.368 321.616,102.416 C321.76,102.512 321.952,102.56 322.144,102.512 C322.336,102.416 322.384,102.32 322.288,102.128 C322.288,102.08 322.24,101.984 322.24,101.936 C322.144,101.552 321.856,101.36 321.568,101.168 C321.376,101.024 321.184,101.024 320.944,101.024 C320.608,101.024 320.32,101.168 319.984,101.312 C319.552,101.504 319.216,101.84 318.928,102.224 C318.544,102.752 318.208,103.232 318.064,103.904 C317.968,104.384 318.016,104.864 318.16,105.296 C318.304,105.68 318.448,106.016 318.736,106.352 C318.928,106.544 319.12,106.64 319.312,106.832 C319.648,107.264 320.128,107.408 320.608,107.648 C320.656,107.696 320.752,107.744 320.848,107.696 C320.848,107.648 320.896,107.696 320.896,107.696 C320.944,107.792 321.04,107.84 321.088,107.744 C321.136,107.696 321.184,107.696 321.184,107.744 C321.232,107.792 321.328,107.792 321.376,107.792 C321.616,107.744 321.856,107.696 322.096,107.936 C322.096,107.936 322.192,107.984 322.192,107.888 C322.192,107.792 322.288,107.84 322.336,107.84 C322.48,107.84 322.576,107.888 322.672,107.792 C322.912,107.6 323.152,107.552 323.44,107.648 C323.536,107.648 323.584,107.648 323.632,107.6 C323.92,107.552 324.16,107.408 324.448,107.36 C324.592,107.36 324.64,107.168 324.688,107.168 C324.832,107.12 324.928,107.12 325.024,107.024 C325.072,106.976 325.12,106.928 325.168,106.88 C325.456,106.736 325.744,106.64 325.984,106.448 C326.128,106.352 326.272,106.304 326.416,106.208 C326.56,106.112 326.8,106.064 326.896,105.872 C327.136,105.584 327.328,105.248 327.472,104.96 C327.712,104.48 327.808,104 327.952,103.52 C328.048,103.088 328.096,102.704 328.096,102.272 L328.096,102.272 Z M334.992,86 C334.992,86.144 334.944,86.288 334.848,86.432 C334.416,87.152 334.176,88.016 333.888,88.784 C333.6,89.408 333.456,90.128 333.216,90.8 C332.88,91.856 332.688,93.008 332.304,94.064 C331.968,94.976 331.824,95.936 331.584,96.848 C331.488,97.28 331.344,97.712 331.344,98.144 C331.248,98.864 331.056,100.064 331.104,100.784 C331.152,101.648 331.248,102.032 331.248,102.848 C331.248,103.232 331.296,103.568 331.44,103.904 C331.536,104.096 331.584,104.336 331.68,104.576 C331.872,105.152 332.16,105.728 332.592,106.208 C332.976,106.688 333.552,106.784 334.032,107.12 C334.56,107.456 335.136,107.456 335.712,107.456 C336.624,107.456 337.248,106.928 337.92,106.4 C338.112,106.208 338.112,105.872 338.4,105.776 C338.496,105.728 338.544,105.536 338.496,105.44 C338.4,105.2 338.544,105.2 338.64,105.104 C338.832,105.008 338.832,104.912 338.688,104.672 C338.64,104.576 338.544,104.48 338.4,104.528 C338.112,104.672 337.824,104.768 337.68,105.104 C337.584,105.296 337.392,105.392 337.248,105.536 C336.864,105.92 336.384,105.92 335.952,106.016 C335.904,106.016 335.856,106.016 335.856,105.968 C335.664,105.728 335.424,105.488 335.328,105.152 C335.28,104.72 335.232,104.288 335.136,103.808 C335.04,103.088 335.376,102.416 335.424,101.696 L335.424,101.6 C335.664,101.408 335.616,101.168 335.616,100.88 C335.616,100.736 335.664,100.592 335.664,100.448 C335.856,98.96 336.288,97.52 336.624,96.08 C336.96,94.736 337.296,93.44 337.728,92.096 C337.968,91.472 338.112,90.848 338.448,90.272 C338.784,89.6 338.88,88.544 339.216,87.872 C339.648,87.008 339.888,86.048 340.224,85.136 C340.416,84.752 340.8,84.896 341.088,84.848 C341.76,84.8 342.384,84.608 343.056,84.56 C343.584,84.512 344.112,84.56 344.64,84.32 C344.976,84.416 345.36,84.32 345.696,84.32 L347.52,84.32 C347.664,84.32 347.76,84.32 347.808,84.128 C347.904,83.84 348.096,83.744 348.384,83.744 L348.384,83.648 C348.192,83.552 348,83.36 347.76,83.312 C347.28,83.264 346.848,83.12 346.368,83.168 L346.128,83.168 C345.408,83.072 344.736,83.072 344.016,83.12 C343.104,83.168 342.192,83.264 341.28,82.976 C341.28,82.688 341.328,82.4 341.424,82.112 C341.616,81.536 341.76,80.912 341.904,80.288 C342.096,79.424 341.856,78.704 341.376,78.032 C341.232,77.84 341.04,77.792 340.896,77.6 C340.704,77.36 340.464,77.312 340.176,77.264 C340.032,77.264 339.936,77.312 339.888,77.408 C339.696,77.84 339.36,78.128 339.12,78.464 C338.496,79.376 338.064,80.384 337.488,81.296 C337.056,81.968 336.768,82.64 336.384,83.312 C336.24,83.6 336.096,83.696 335.808,83.696 C335.28,83.744 334.704,83.84 334.176,83.888 C333.744,83.984 333.264,83.984 332.832,83.984 C332.592,84.032 332.352,83.936 332.112,83.936 C331.776,83.888 331.44,83.888 331.104,83.84 C330.48,83.744 329.856,83.504 329.28,83.36 C328.896,83.312 328.464,83.168 328.08,83.6 C327.84,83.936 327.744,84.272 327.936,84.656 C328.128,84.944 328.32,85.232 328.464,85.568 C328.656,85.904 328.944,86.048 329.28,86.096 C329.472,86.096 329.664,86.096 329.856,86.144 C330.384,86.288 330.864,86.288 331.344,86.24 C331.584,86.192 331.824,86.24 332.064,86.288 C332.208,86.288 332.352,86.288 332.496,86.336 C333.264,86.384 334.032,86.144 334.752,86 C334.848,85.952 334.896,85.952 334.992,86 L334.992,86 Z M336.816,106.16 C336.816,106.256 336.72,106.256 336.672,106.304 C336.624,106.352 336.576,106.352 336.576,106.304 C336.576,106.16 336.672,106.16 336.72,106.112 C336.768,106.112 336.816,106.16 336.816,106.16 L336.816,106.16 Z M336.432,106.64 C336.432,106.688 336.384,106.688 336.336,106.688 C336.288,106.688 336.288,106.688 336.288,106.592 C336.288,106.544 336.288,106.496 336.336,106.544 C336.432,106.544 336.432,106.592 336.432,106.64 L336.432,106.64 Z M359.024,86.576 C358.88,86.48 358.832,86.576 358.736,86.624 C358.64,86.624 358.592,86.624 358.544,86.528 C358.544,86.48 358.592,86.432 358.64,86.384 C358.688,86.336 358.88,86.288 358.784,86.192 C358.688,86.096 358.592,85.952 358.4,85.952 C357.92,86.048 357.44,86 356.912,86.144 C356.096,86.336 355.232,86.48 354.464,86.816 C353.36,87.248 352.352,87.872 351.44,88.64 C350.912,89.072 350.288,89.456 349.808,89.936 C349.76,90.032 349.616,90.08 349.424,90.176 C349.712,89.552 349.616,89.12 349.232,88.688 C349.136,88.64 349.088,88.592 349.088,88.544 C348.8,88.064 348.32,87.68 348.176,87.152 C348.128,87.008 348.608,87.296 348.512,87.296 C348.272,87.296 348.032,87.2 347.792,87.152 C346.976,86.864 346.544,86.96 346.016,87.584 C345.824,87.872 345.632,88.112 345.392,88.352 L342.176,97.472 C342.224,97.472 342.224,97.424 342.272,97.424 C342.224,97.616 342.224,97.76 342.176,97.904 C341.744,99.536 341.408,101.216 341.168,102.896 C341.12,103.184 341.12,103.52 341.312,103.712 C341.6,104 341.984,104.144 342.176,104.48 C342.224,104.528 342.32,104.528 342.368,104.576 L342.944,104.864 C343.088,104.96 342.752,104.72 342.8,105.008 C342.8,105.152 343.088,105.248 343.136,105.2 C343.28,105.056 344.048,105.392 344.192,105.296 C344.672,104.96 344.672,104.48 345.008,104 C345.152,103.856 345.344,103.856 345.44,103.664 C345.68,103.136 346.064,102.608 346.256,102.032 C346.496,101.264 346.88,100.544 347.216,99.824 C347.6,99.056 348.08,98.384 348.368,97.568 C348.704,96.704 349.184,95.888 349.664,95.072 C350.144,94.352 350.672,93.68 351.152,92.96 C351.872,92 352.592,91.088 353.6,90.416 C354.416,89.84 355.28,89.312 356.24,89.072 C356.816,88.88 357.44,88.64 358.064,88.496 C358.4,88.448 358.736,88.064 358.688,87.872 C358.592,87.584 358.784,87.488 358.928,87.344 C358.976,87.248 359.12,87.296 359.168,87.152 C358.88,87.008 358.928,86.768 359.024,86.576 L359.024,86.576 Z M371.248,80.48 C371.296,80.192 371.2,80 370.96,79.808 C370.672,79.568 370.288,79.472 369.904,79.328 C369.616,79.232 369.28,79.232 368.944,79.28 C368.368,79.376 367.984,79.568 367.504,79.76 C367.264,79.808 367.024,80 367.024,80.144 C366.976,80.384 366.784,80.528 366.592,80.672 C366.4,80.816 366.256,80.96 366.064,81.104 C365.68,81.44 365.392,81.824 365.2,82.256 C365.104,82.592 365.152,82.928 365.008,83.216 C364.768,83.792 365.2,84.416 366.112,84.704 C366.448,84.8 367.024,84.752 367.168,84.608 C367.264,84.416 367.6,84.656 367.744,84.512 C367.936,84.32 368.224,84.128 368.56,84.128 C369.04,84.128 369.28,83.648 369.52,83.408 L369.808,83.264 C369.904,83.216 370.048,83.168 370.096,83.072 C370.192,82.88 370.336,82.688 370.432,82.544 C370.768,82.112 370.816,81.584 371.056,81.152 C371.152,80.912 371.104,80.624 371.248,80.48 L371.248,80.48 Z M373.12,91.04 C373.072,91.04 372.928,91.088 372.88,91.136 C372.592,91.328 372.304,91.52 372.016,91.712 C372.016,91.616 371.968,91.568 371.968,91.424 C371.872,91.52 371.776,91.568 371.68,91.616 C370.912,92.432 370.096,93.2 369.328,94.016 L369.28,94.016 C368.416,94.88 367.552,95.696 366.64,96.512 C365.824,97.28 365.008,98 364.192,98.768 C364.144,98.816 364.144,98.864 364.096,98.864 C363.328,99.488 362.416,100.112 362.128,100.496 C362.08,100.496 362.08,100.544 362.032,100.544 C361.984,100.592 361.984,100.64 361.936,100.592 C361.84,100.544 361.84,100.496 361.888,100.448 C362.08,100.064 362.128,99.632 362.224,99.248 C362.464,98.336 362.8,97.472 362.992,96.608 C362.992,96.56 363.04,96.464 363.04,96.416 C363.52,95.024 364.192,93.68 364.576,92.24 C364.624,91.904 364.768,91.616 364.864,91.28 C364.96,90.8 365.104,90.368 365.296,89.984 C365.536,89.504 365.68,88.976 365.824,88.496 C365.968,87.968 365.728,87.296 365.392,87.104 C365.056,86.912 364.72,86.72 364.336,86.528 C364,86.336 363.568,86.384 363.184,86.432 C362.848,86.528 362.704,86.768 362.56,87.008 C362.464,87.152 362.416,87.248 362.368,87.392 C361.984,88.112 361.6,88.784 361.264,89.504 C360.496,90.896 359.92,92.288 359.344,93.776 C359.056,94.544 358.816,95.36 358.528,96.128 C358.288,96.8 358.096,97.472 357.952,98.144 C357.664,99.584 357.952,100.832 358.672,101.984 C358.816,102.224 359.008,102.464 359.104,102.704 C359.2,102.896 359.344,103.04 359.488,103.184 C359.728,103.28 359.728,103.088 359.968,103.184 C360.16,103.328 360.4,103.472 360.64,103.616 C360.832,103.712 361.12,103.712 361.408,103.712 C361.456,103.664 361.552,103.664 361.648,103.616 C361.888,103.616 362.176,103.616 362.464,103.568 C362.56,103.52 362.704,103.52 362.848,103.424 C363.232,103.04 363.76,102.8 364.144,102.368 C364.48,101.984 364.816,101.936 365.152,101.6 C365.2,101.552 365.776,100.976 365.968,100.64 C366.304,100.208 366.64,99.824 366.976,99.44 C367.312,99.008 367.696,98.624 368.08,98.24 C368.32,97.952 368.608,97.712 368.8,97.376 C368.992,97.04 369.232,96.752 369.472,96.464 C369.664,96.272 369.808,96.08 369.856,95.888 C369.904,95.744 369.952,95.648 370.048,95.552 C370.528,95.024 371.056,94.544 371.392,93.968 C371.776,93.344 372.208,92.768 372.688,92.24 C372.976,91.952 373.12,91.664 373.168,91.328 C373.168,91.184 373.216,91.088 373.12,91.04 L373.12,91.04 Z M393.984,95.024 C393.936,95.024 393.84,95.024 393.84,95.072 C393.36,95.36 392.88,95.696 392.448,96.032 C392.016,96.416 391.584,96.848 391.152,97.232 C390.96,97.424 390.72,97.52 390.528,97.664 C390.24,97.904 389.952,98.144 389.664,98.384 C389.472,98.528 389.328,98.72 389.184,98.864 C388.512,99.536 387.792,100.16 387.12,100.832 C386.784,101.12 386.448,101.456 386.112,101.792 C385.776,102.08 385.392,102.368 385.008,102.656 C384.624,102.896 384.288,103.088 383.904,103.28 C383.808,103.328 383.664,103.328 383.568,103.328 C383.424,103.376 383.328,103.328 383.28,103.232 C383.28,103.232 383.28,103.232 383.28,103.184 C383.232,102.896 383.136,102.608 383.184,102.32 C383.232,101.648 383.328,100.976 383.52,100.304 C383.808,99.248 384.24,98.24 384.576,97.184 C384.768,96.56 385.152,95.984 385.392,95.36 C385.728,94.688 386.064,94.064 386.496,93.44 C386.88,92.912 387.36,92.384 387.696,91.808 C387.984,91.376 388.176,90.944 388.512,90.512 C389.04,89.84 389.088,89.024 388.656,88.256 C388.224,87.44 387.408,87.152 386.544,87.104 C386.16,87.056 385.776,87.152 385.44,87.344 C384.48,87.872 383.616,88.544 382.896,89.36 C382.224,90.128 381.504,90.8 380.88,91.568 C379.92,92.72 378.912,93.776 378.048,94.976 C377.856,95.264 377.616,95.552 377.28,95.792 C377.28,95.6 377.376,95.504 377.424,95.36 C377.52,95.024 377.76,94.736 377.808,94.4 C377.904,93.968 378,93.584 378.096,93.2 C378.288,92.528 378.432,91.856 378.72,91.232 C379.008,90.512 379.248,89.792 379.248,88.976 C379.296,88.64 379.248,88.304 379.248,87.968 C379.248,87.44 379.056,87.056 378.624,86.864 C378.384,86.768 378.288,86.624 378.192,86.384 C378.192,86.288 378.144,86.192 378.096,86.048 C377.904,86.096 377.904,86.336 377.712,86.384 C377.76,86.144 377.952,86.048 378,85.856 C377.856,85.808 377.808,85.856 377.712,85.904 C377.616,86.096 377.472,86 377.376,85.904 C377.04,85.568 376.8,85.568 376.512,85.856 C376.416,85.952 376.368,86.048 376.272,86.096 C376.08,86.24 375.936,86.336 375.792,86.48 C374.256,89.936 372.096,94.736 371.088,96.992 C370.896,97.664 370.704,98.336 370.416,98.96 C370.176,99.584 369.888,100.256 369.744,100.928 C369.408,102.176 369.12,103.472 369.696,104.768 C369.792,104.912 369.792,105.104 370.032,105.248 C370.032,105.008 370.224,104.912 370.368,104.72 C370.416,104.912 370.512,105.008 370.56,105.104 C370.608,105.152 370.512,105.2 370.608,105.248 C370.8,105.008 370.896,105.008 371.136,105.296 C371.232,105.248 371.184,105.152 371.328,105.152 C371.376,105.344 371.568,105.488 371.712,105.68 C371.856,105.92 372.144,105.92 372.432,105.776 C372.672,105.68 372.96,105.68 373.104,105.44 C373.104,105.44 373.2,105.44 373.248,105.488 C373.296,105.536 373.344,105.488 373.392,105.44 C373.824,105.008 374.16,104.528 374.448,104.048 C374.784,103.568 375.168,103.088 375.312,102.512 C375.36,102.224 375.696,102.128 375.744,101.84 C376.224,100.448 377.424,99.008 378.384,97.856 C378.768,97.376 379.2,96.992 379.632,96.56 C380.4,95.84 381.072,95.024 381.744,94.16 C382.032,93.776 382.416,93.44 382.8,93.056 C382.32,94.208 381.84,95.36 381.456,96.512 C381.12,97.472 380.784,98.384 380.544,99.392 C380.352,100.16 380.256,100.976 380.208,101.792 C380.16,102.464 380.16,103.136 380.448,103.808 C380.496,103.904 380.544,104 380.64,104.096 C380.688,104.144 380.688,104.192 380.736,104.24 C380.928,104.432 381.024,104.672 381.168,104.864 C381.36,105.056 381.552,105.2 381.744,105.392 C382.08,105.728 382.608,105.68 383.04,105.728 C383.28,105.728 383.616,105.728 383.856,105.584 C384.528,105.2 385.2,104.864 385.776,104.336 C386.016,104.048 386.304,103.808 386.544,103.568 C387.312,102.8 388.032,102.08 388.752,101.36 C389.328,100.736 389.904,100.112 390.48,99.488 C390.96,99.008 391.44,98.48 391.872,97.952 C392.16,97.664 392.4,97.28 392.688,97.088 C393.024,96.848 393.312,96.56 393.552,96.272 C393.744,96.08 393.936,95.84 394.032,95.6 C394.128,95.456 394.176,95.216 393.984,95.024 L393.984,95.024 Z M374.016,104.24 C374.016,104.288 374.016,104.24 374.016,104.24 C374.016,104.144 374.016,104.096 374.064,104.096 L374.112,104.144 C374.112,104.192 374.064,104.24 374.016,104.24 L374.016,104.24 Z M415.664,91.664 C415.52,91.664 415.472,91.712 415.376,91.712 C415.184,91.76 414.992,91.904 414.848,92 C413.888,92.528 412.976,93.056 412.016,93.632 L411.92,93.728 C411.2,94.304 410.432,94.784 409.712,95.312 C408.512,96.224 407.312,97.088 406.16,98 C406.016,98.096 405.968,98.144 405.68,98.288 C405.872,97.472 405.92,96.896 406.016,96.32 C406.256,94.88 406.352,93.632 406.352,91.952 C406.352,91.184 406.304,90.464 406.304,89.648 L406.304,88.4 L406.304,87.872 C406.304,87.728 406.352,87.536 406.448,87.344 C406.496,87.296 406.448,87.248 406.448,87.2 C406.4,86.96 406.352,86.768 406.208,86.576 C406.016,86.384 405.824,86.192 405.68,86 C405.584,85.904 405.536,85.856 405.488,85.76 C405.344,85.568 405.152,85.376 404.912,85.28 C404.864,85.232 404.816,85.232 404.816,85.184 L404.768,85.184 L404.72,85.136 C404.528,84.848 404.336,84.704 404.048,84.512 C403.568,84.128 402.992,84.08 402.368,84.032 C401.504,84.032 400.736,84.32 400.016,84.704 C398.432,85.52 397.184,86.768 396.032,88.16 C395.408,88.88 394.88,89.744 394.352,90.608 C393.248,92.48 392.384,94.496 391.904,96.656 C391.712,97.424 391.616,98.24 391.568,99.008 C391.52,99.344 391.52,99.728 391.568,100.064 C391.616,100.688 391.904,101.264 392.144,101.792 C392.432,102.32 392.912,102.608 393.536,102.656 C393.632,102.704 393.728,102.704 393.824,102.752 C394.112,102.848 394.4,102.896 394.736,102.992 C395.312,103.088 395.936,102.848 396.464,102.512 L396.56,102.416 C396.8,101.984 397.232,101.744 397.568,101.456 C397.952,101.072 398.288,100.736 398.528,100.304 C398.72,99.776 399.104,99.344 399.296,98.864 L399.44,98.72 C399.536,98.624 399.584,98.576 399.632,98.48 C399.68,98.384 399.728,98.288 399.776,98.192 C399.968,97.952 400.112,97.616 400.304,97.328 C400.4,97.232 400.448,97.088 400.544,96.992 C400.784,96.56 400.928,96.176 401.216,95.792 C401.36,95.36 401.648,95.024 401.888,94.64 C402.032,94.496 402.176,94.688 402.176,94.688 C402.128,95.552 401.984,96.32 401.888,97.088 C401.792,98.144 401.6,99.2 401.456,100.256 C401.408,100.88 401.312,101.456 401.216,101.984 C401.12,102.224 401.072,102.32 400.928,102.464 C400.064,103.184 399.248,104.048 398.432,104.816 C398.288,105.008 398.096,105.152 397.904,105.296 C397.712,105.44 397.52,105.584 397.376,105.776 C396.944,106.16 396.56,106.544 396.224,106.976 C396.176,107.072 396.08,107.216 395.984,107.312 C395.888,107.408 395.84,107.504 395.744,107.6 C395.408,107.888 395.12,108.128 394.832,108.416 C394.544,108.656 394.256,108.992 393.968,109.28 C393.68,109.568 393.44,109.904 393.152,110.192 C392.144,111.296 391.088,112.304 390.224,113.504 C389.744,114.128 389.264,114.656 388.88,115.28 C388.256,116.144 387.728,117.008 387.056,117.824 C386.048,118.976 385.376,120.32 384.512,121.568 C384.032,122.24 383.696,122.96 383.312,123.68 C382.832,124.496 382.448,125.36 382.16,126.272 C381.872,126.944 381.728,127.664 381.584,128.336 C381.488,128.864 381.536,129.392 381.776,129.824 C382.112,130.4 382.496,130.88 383.072,131.216 C383.744,131.648 384.368,131.792 385.088,131.552 C385.328,131.504 385.52,131.504 385.76,131.648 L385.808,131.696 C386.624,131.792 387.392,131.648 388.112,131.36 C388.304,131.312 388.496,131.264 388.64,131.12 C388.976,130.832 389.36,130.496 389.648,130.112 C389.888,129.728 390.224,129.392 390.608,129.2 C391.04,128.912 391.424,128.528 391.808,128.24 C392,128.096 392.144,127.904 392.336,127.712 C392.576,127.376 392.768,126.992 393.008,126.656 C393.056,126.608 393.056,126.56 393.104,126.512 C393.2,126.272 393.296,126.08 393.488,125.888 C393.68,125.648 393.824,125.408 394.016,125.12 C394.16,124.832 394.352,124.592 394.544,124.304 C394.88,123.872 395.168,123.392 395.456,122.912 C395.744,122.432 395.984,121.904 396.272,121.376 C396.752,120.464 397.232,119.6 397.76,118.784 C397.904,118.544 398.096,118.304 398.528,117.776 C398.528,118.16 398.528,118.256 398.48,118.304 C398.48,118.352 398.432,118.4 398.432,118.448 C398.384,118.496 398.384,118.544 398.432,118.592 L398.24,118.544 L398.288,118.496 C398.48,117.968 398.816,117.536 399.008,117.008 C399.2,116.48 399.536,116.048 399.872,115.568 C400.352,114.992 400.688,114.32 400.976,113.6 C401.36,112.544 401.648,111.44 402.176,110.432 C402.8,109.232 403.232,107.936 403.568,106.592 C403.904,105.248 404.192,103.856 404.624,102.56 C404.816,102.08 404.96,101.6 405.104,101.072 L405.584,100.592 C405.872,100.256 406.208,99.92 406.592,99.632 C407.12,99.152 407.648,98.672 408.176,98.192 C408.944,97.52 409.712,96.848 410.48,96.176 C410.528,96.128 410.576,96.08 410.624,96.08 L410.672,96.032 C410.96,95.84 411.2,95.6 411.44,95.36 C411.776,95.072 412.112,94.784 412.448,94.448 C412.592,94.352 412.784,94.256 412.928,94.16 C413.12,93.968 413.36,93.776 413.6,93.632 C413.84,93.44 414.08,93.248 414.272,93.056 C414.416,92.864 414.608,92.72 414.8,92.576 C414.992,92.432 415.136,92.288 415.328,92.144 C415.472,92.048 415.52,92 415.568,91.904 C415.616,91.856 415.616,91.808 415.616,91.76 L415.664,91.664 Z M402.512,87.392 C402.56,87.728 402.56,87.92 402.512,88.112 C402.512,88.736 402.464,89.408 402.464,90.08 C402.464,90.224 402.368,90.368 402.272,90.464 C401.168,91.616 400.304,92.96 399.44,94.256 C398.912,95.024 398.336,95.744 397.712,96.368 C397.088,97.04 396.512,97.76 395.936,98.48 C395.888,98.528 395.84,98.576 395.792,98.672 C395.696,98.72 395.648,98.768 395.36,98.864 C395.408,98.336 395.504,98 395.6,97.712 C395.888,96.656 396.176,95.648 396.512,94.688 C396.704,94.208 396.992,93.776 397.232,93.344 C397.472,92.96 397.712,92.576 397.952,92.24 C398.192,91.856 398.432,91.472 398.624,91.04 C398.768,90.848 398.912,90.704 399.104,90.56 C399.584,90.176 399.92,89.6 400.304,89.12 C400.784,88.4 401.504,87.92 402.224,87.488 C402.272,87.488 402.32,87.44 402.512,87.392 L402.512,87.392 Z M398.768,107.504 C398.96,107.12 399.296,106.832 399.824,106.448 C399.824,106.832 399.776,106.928 399.776,107.024 L399.68,107.168 C399.68,107.216 399.68,107.264 399.632,107.312 C399.296,108.368 398.864,109.376 398.336,110.336 C397.904,111.152 397.568,112.064 397.136,112.88 C396.464,114.32 395.84,115.808 395.024,117.2 C394.304,118.4 393.68,119.648 392.912,120.848 C392.528,121.376 392.192,121.904 391.808,122.384 C391.232,123.056 390.8,123.824 390.224,124.496 C389.792,124.928 389.36,125.312 388.976,125.792 C388.256,126.704 387.44,127.616 386.528,128.432 C386.096,128.816 385.568,129.008 385.04,129.296 C384.992,129.344 384.896,129.392 384.8,129.44 C384.704,129.44 384.608,129.488 384.368,129.584 C384.272,129.056 384.416,128.816 384.608,128.624 C384.944,128.24 385.088,127.76 385.232,127.28 C385.472,126.608 385.76,125.984 385.952,125.312 C386.192,124.784 386.432,124.256 386.768,123.824 C386.912,123.584 387.056,123.296 387.152,123.008 C387.248,122.816 387.344,122.624 387.488,122.432 C387.968,121.808 388.352,121.136 388.736,120.416 C389.168,119.696 389.6,118.976 390.128,118.256 C390.56,117.632 390.992,117.056 391.424,116.384 C391.616,116 391.904,115.664 392.144,115.328 C392.432,115.04 392.672,114.656 392.96,114.32 C393.344,113.936 393.68,113.552 394.016,113.12 C394.448,112.592 394.88,112.016 395.36,111.488 C395.888,110.912 396.416,110.384 396.944,109.76 C397.328,109.328 397.664,108.896 398.048,108.464 C398.336,108.128 398.576,107.84 398.768,107.504 L398.768,107.504 Z M414.448,105.2 C414.544,105.44 414.544,105.44 414.736,105.296 C414.784,105.248 414.832,105.2 414.832,105.248 C414.928,105.296 415.024,105.248 415.072,105.152 C415.12,105.152 415.168,105.104 415.216,105.152 C415.312,105.248 415.36,105.2 415.408,105.104 C415.552,104.912 415.744,104.816 415.984,104.768 C416.32,104.672 416.512,104.48 416.656,104.144 C416.8,103.76 416.992,103.328 416.704,102.896 C416.656,102.752 416.608,102.56 416.464,102.464 C416.416,102.416 416.368,102.368 416.368,102.272 C416.368,102.176 416.272,102.128 416.224,102.08 C415.936,101.936 415.696,101.744 415.408,101.6 C415.36,101.6 415.264,101.504 415.168,101.552 C414.832,101.648 414.592,101.792 414.352,102.032 C413.968,102.416 413.728,102.896 413.488,103.376 C413.296,103.712 413.44,104.048 413.536,104.336 C413.584,104.576 413.776,104.864 414.016,105.056 C414.112,105.056 414.064,104.864 414.16,104.912 L414.16,105.056 C414.112,105.152 414.112,105.296 414.208,105.344 C414.352,105.44 414.352,105.2 414.448,105.2 L414.448,105.2 Z M427.92,102.032 C428.016,102.32 428.112,102.56 428.304,102.8 C428.448,102.992 428.496,103.136 428.544,103.328 C428.592,103.76 428.88,104.048 429.168,104.336 C429.408,104.624 429.744,104.816 430.08,105.008 C430.32,105.104 430.56,105.2 430.8,105.296 C431.136,105.344 431.472,105.296 431.76,105.152 C431.952,105.008 432.144,104.864 432.336,104.768 C432.528,104.72 432.624,104.624 432.768,104.528 C433.104,104.336 433.392,104.096 433.728,103.856 C434.112,103.568 434.544,103.328 434.688,102.752 C434.688,102.704 434.736,102.656 434.784,102.656 C435.024,102.416 435.12,102.128 435.264,101.888 C435.6,101.312 436.032,100.736 436.416,100.256 C436.848,99.776 437.136,99.248 437.424,98.672 C437.712,98.096 437.952,97.52 438.336,97.04 C438.384,96.944 438.432,96.8 438.48,96.704 C438.768,96.176 439.056,95.696 439.392,95.216 C439.68,94.784 440.16,94.448 440.112,93.824 C440.112,93.824 440.112,93.824 440.112,93.776 C440.256,93.584 440.352,93.344 440.4,93.104 C440.4,92.912 440.4,92.864 440.304,92.864 C440.16,92.816 440.016,92.816 439.872,92.864 C439.632,93.008 439.392,93.152 439.2,93.344 C438.528,94.016 437.952,94.784 437.376,95.504 C436.512,96.56 435.84,97.712 435.024,98.768 C434.256,99.776 433.488,100.784 432.672,101.744 C432.336,102.176 431.952,102.464 431.52,102.656 C431.424,102.512 431.472,102.368 431.472,102.224 C431.568,101.552 431.712,100.88 431.808,100.16 C431.952,99.392 432.048,98.624 432.192,97.856 C432.24,97.472 432.336,97.136 432.432,96.752 C432.576,95.84 432.864,94.976 433.152,94.112 C433.296,93.68 433.44,93.248 433.488,92.768 C433.536,92.432 433.632,92.192 433.728,91.904 C433.872,91.424 433.968,90.896 434.112,90.416 L434.112,90.128 C434.112,89.744 433.968,89.456 433.824,89.12 C433.728,88.928 433.68,88.64 433.536,88.448 C433.152,88.064 432.768,87.68 432.24,87.536 C431.808,87.392 431.52,87.296 431.232,87.728 C431.136,87.824 431.04,87.824 430.944,87.728 C430.704,87.536 430.464,87.344 430.224,87.104 C429.888,86.672 429.312,86.672 428.88,86.384 C428.544,86.432 428.256,86.432 427.968,86.624 C427.44,86.96 426.912,87.296 426.384,87.632 C425.76,88.016 425.184,88.496 424.704,89.072 C424.032,89.888 423.456,90.704 422.832,91.52 C422.544,91.904 422.304,92.288 422.016,92.72 C421.536,93.488 421.152,94.352 420.672,95.12 C420.48,95.552 420.24,95.936 420.096,96.368 C419.712,97.472 419.376,98.576 419.232,99.776 C419.184,100.304 419.088,100.88 419.136,101.408 C419.136,102.32 419.52,103.04 419.952,103.808 C420,103.904 420.048,104 420.144,104.048 C420.768,104.576 421.392,105.2 422.304,105.104 C422.352,105.104 422.448,105.152 422.496,105.152 C422.832,105.2 423.12,105.296 423.456,105.2 C423.984,105.056 424.56,105.056 425.04,104.672 C425.088,104.624 425.136,104.624 425.184,104.624 C425.664,104.432 426.048,104.096 426.432,103.76 C426.816,103.424 427.152,103.04 427.44,102.56 C427.584,102.368 427.728,102.224 427.92,102.032 L427.92,102.032 Z M430.416,89.6 C430.032,90.752 429.696,91.856 429.36,92.96 C429.072,93.92 428.736,94.88 428.496,95.888 C428.4,96.176 428.256,96.368 428.112,96.56 C427.584,97.328 427.104,98.096 426.624,98.912 C426,100.064 425.328,101.12 424.512,102.128 C424.128,102.512 423.744,102.896 423.312,103.232 C422.976,103.472 422.832,103.376 422.736,102.992 C422.688,102.896 422.688,102.8 422.688,102.704 C422.784,102.32 422.88,101.936 422.928,101.6 C422.976,101.216 423.168,100.928 423.264,100.592 C423.312,100.352 423.408,100.112 423.456,99.92 C423.744,98.864 424.224,97.952 424.656,96.992 C424.848,96.56 425.136,96.128 425.328,95.696 C425.424,95.552 425.52,95.456 425.616,95.312 C425.904,94.976 426.096,94.592 426.288,94.208 C426.624,93.632 427.056,93.152 427.44,92.672 C427.68,92.384 428.064,92.24 428.304,91.952 C428.64,91.472 429.024,90.992 429.36,90.512 C429.552,90.224 429.792,90.032 430.032,89.744 C430.128,89.696 430.224,89.6 430.416,89.6 L430.416,89.6 Z M451.424,80.48 C451.472,80.192 451.376,80 451.136,79.808 C450.848,79.568 450.464,79.472 450.08,79.328 C449.792,79.232 449.456,79.232 449.12,79.28 C448.544,79.376 448.16,79.568 447.68,79.76 C447.44,79.808 447.2,80 447.2,80.144 C447.152,80.384 446.96,80.528 446.768,80.672 C446.576,80.816 446.432,80.96 446.24,81.104 C445.856,81.44 445.568,81.824 445.376,82.256 C445.28,82.592 445.328,82.928 445.184,83.216 C444.944,83.792 445.376,84.416 446.288,84.704 C446.624,84.8 447.2,84.752 447.344,84.608 C447.44,84.416 447.776,84.656 447.92,84.512 C448.112,84.32 448.4,84.128 448.736,84.128 C449.216,84.128 449.456,83.648 449.696,83.408 C449.792,83.36 449.888,83.312 449.984,83.264 C450.08,83.216 450.224,83.168 450.272,83.072 C450.368,82.88 450.512,82.688 450.608,82.544 C450.944,82.112 450.992,81.584 451.232,81.152 C451.328,80.912 451.28,80.624 451.424,80.48 L451.424,80.48 Z M453.296,91.04 C453.248,91.04 453.104,91.088 453.056,91.136 C452.768,91.328 452.48,91.52 452.192,91.712 C452.192,91.616 452.144,91.568 452.144,91.424 C452.048,91.52 451.952,91.568 451.856,91.616 C451.088,92.432 450.272,93.2 449.504,94.016 L449.456,94.016 C448.592,94.88 447.728,95.696 446.816,96.512 C446,97.28 445.184,98 444.368,98.768 C444.32,98.816 444.32,98.864 444.272,98.864 C443.504,99.488 442.592,100.112 442.304,100.496 C442.256,100.496 442.256,100.544 442.208,100.544 C442.16,100.592 442.16,100.64 442.112,100.592 C442.016,100.544 442.016,100.496 442.064,100.448 C442.256,100.064 442.304,99.632 442.4,99.248 C442.64,98.336 442.976,97.472 443.168,96.608 C443.168,96.56 443.216,96.464 443.216,96.416 C443.696,95.024 444.368,93.68 444.752,92.24 C444.8,91.904 444.944,91.616 445.04,91.28 C445.136,90.8 445.28,90.368 445.472,89.984 C445.712,89.504 445.856,88.976 446,88.496 C446.144,87.968 445.904,87.296 445.568,87.104 C445.232,86.912 444.896,86.72 444.512,86.528 C444.176,86.336 443.744,86.384 443.36,86.432 C443.024,86.528 442.88,86.768 442.736,87.008 C442.64,87.152 442.592,87.248 442.544,87.392 C442.16,88.112 441.776,88.784 441.44,89.504 C440.672,90.896 440.096,92.288 439.52,93.776 C439.232,94.544 438.992,95.36 438.704,96.128 C438.464,96.8 438.272,97.472 438.128,98.144 C437.84,99.584 438.128,100.832 438.848,101.984 C438.992,102.224 439.184,102.464 439.28,102.704 C439.376,102.896 439.52,103.04 439.664,103.184 C439.904,103.28 439.904,103.088 440.144,103.184 C440.336,103.328 440.576,103.472 440.816,103.616 C441.008,103.712 441.296,103.712 441.584,103.712 C441.632,103.664 441.728,103.664 441.824,103.616 C442.064,103.616 442.352,103.616 442.64,103.568 C442.736,103.52 442.88,103.52 443.024,103.424 C443.408,103.04 443.936,102.8 444.32,102.368 C444.656,101.984 444.992,101.936 445.328,101.6 C445.376,101.552 445.952,100.976 446.144,100.64 C446.48,100.208 446.816,99.824 447.152,99.44 C447.488,99.008 447.872,98.624 448.256,98.24 C448.496,97.952 448.784,97.712 448.976,97.376 C449.168,97.04 449.408,96.752 449.648,96.464 C449.84,96.272 449.984,96.08 450.032,95.888 C450.08,95.744 450.128,95.648 450.224,95.552 C450.704,95.024 451.232,94.544 451.568,93.968 C451.952,93.344 452.384,92.768 452.864,92.24 C453.152,91.952 453.296,91.664 453.344,91.328 C453.344,91.184 453.392,91.088 453.296,91.04 L453.296,91.04 Z" id="logo-blue"></path>
        </g>
    </g>
</svg>